<?xml version="1.0" encoding="UTF-8"?>
<svg width="140px" height="52px" viewBox="0 0 140 52" version="1.1" xmlns="http://www.w3.org/2000/svg" xmlns:xlink="http://www.w3.org/1999/xlink">
    <!-- Generator: Sketch 53.2 (72643) - https://sketchapp.com -->
    <title>logo</title>
    <desc>Created with Sketch.</desc>
    <g id="组件" stroke="none" stroke-width="1" fill="none" fill-rule="evenodd">
        <g id="topnav" transform="translate(-360.000000, -14.000000)" fill="#FFFFFF" fill-rule="nonzero">
            <g id="分组-9">
                <g transform="translate(360.000000, 14.000000)">
                    <path d="M35.572,46.58 C36.904,44.336 38.224,41.924 39.652,40.064 C39.892,39.752 40.132,39.452 40.372,39.14 C40.504,38.984 40.66,38.804 40.888,38.804 C41.008,38.804 41.356,38.936 40.744,39.704 C37.732,43.82 36.88,45.44 36.244,46.628 C35.752,47.564 35.632,47.468 35.512,47.468 C34.948,47.468 34.876,46.712 34.876,46.304 C34.876,44.492 35.836,41.108 36.568,39.44 C36.7,39.152 36.832,38.612 37.216,38.612 C37.576,38.612 37.588,38.816 37.336,39.476 C36.568,41.3 35.56,44.276 35.56,46.232 L35.572,46.58 Z M42.904,40.472 C40.384,44.144 40.024,45.8 39.904,46.34 C39.868,46.52 39.808,46.784 39.568,46.784 C39.376,46.784 39.232,46.568 39.232,46.388 C39.232,45.8 39.844,44.276 40.216,43.64 C41.32,41.744 42.58,39.428 43.432,38.672 C43.612,38.516 43.852,38.792 43.852,38.936 C43.852,39.236 43.24,39.992 42.904,40.472 Z M43.24,44.132 C43.408,44.132 43.528,44.252 43.528,44.42 C43.528,44.84 42.688,44.588 42.688,45.416 C42.688,46.724 45.484,46.28 45.484,44.948 C45.484,44.036 44.104,43.028 44.104,41.864 C44.104,40.976 44.62,40.244 45.256,39.68 C45.892,39.116 46.864,38.552 47.728,38.552 C48.244,38.552 48.688,38.828 48.688,39.38 C48.688,40.112 48.004,40.784 47.476,41.204 C47.14,41.468 46.336,42.02 45.904,42.02 C45.64,42.02 45.28,41.6 45.988,41.348 C46.42,41.204 46.84,40.976 47.2,40.7 C48.316,39.8 48.184,39.14 47.632,39.14 C47.08,39.14 46.324,39.548 45.892,39.884 C45.364,40.28 44.764,41.024 44.764,41.732 C44.764,42.92 46.192,43.988 46.192,44.972 C46.192,46.136 44.776,46.796 43.768,46.796 C41.284,46.796 41.704,44.132 43.24,44.132 Z M50.74,40.472 C48.22,44.144 47.86,45.8 47.74,46.34 C47.704,46.52 47.644,46.784 47.404,46.784 C47.212,46.784 47.068,46.568 47.068,46.388 C47.068,45.8 47.68,44.276 48.052,43.64 C49.156,41.744 50.416,39.428 51.268,38.672 C51.448,38.516 51.688,38.792 51.688,38.936 C51.688,39.236 51.076,39.992 50.74,40.472 Z M54.22,39.836 L53.908,40.16 C51.292,42.896 50.824,44.768 50.824,45.656 C50.824,46.016 50.956,46.364 51.376,46.364 C52.564,46.364 55.756,42.428 55.756,40.304 C55.756,39.68 55.372,39.248 54.748,39.248 L54.364,39.272 C54.556,39.464 54.484,39.572 54.22,39.836 Z M56.476,40.232 C56.476,41.552 55.468,43.208 54.7,44.252 C54.004,45.188 52.384,47.132 51.148,47.132 C50.44,47.132 50.104,46.436 50.104,45.812 C50.104,43.628 52.384,40.664 54.04,39.332 C53.644,39.38 53.296,39.572 52.948,39.764 C52.888,39.788 52.804,39.836 52.732,39.836 C52.672,39.836 52.012,39.548 52.924,39.08 C53.716,38.672 54.424,38.516 54.988,38.588 C55.912,38.708 56.464,39.332 56.476,40.232 Z M59.32,45.008 L59.332,45.608 L59.356,45.608 L61.204,41.54 L62.32,39.464 C62.5,39.14 62.92,38.288 63.364,38.288 C63.64,38.288 63.688,38.444 63.136,39.272 C61.864,41.288 60.748,43.4 59.98,45.656 C59.836,46.088 59.572,47.012 58.984,47.012 C58.78,47.012 58.696,46.832 58.648,46.628 C58.576,46.208 58.564,43.856 59.44,40.28 L59.416,40.256 C58.396,41.48 56.872,44.216 56.26,46.1 C56.164,46.424 56.02,47.108 55.564,47.108 C55.42,47.108 55.336,46.964 55.336,46.832 C55.336,46.424 56.272,44.252 57.748,41.912 C58.684,40.424 59.62,38.624 60.268,38.66 C60.4,38.672 60.604,38.78 60.424,39.152 C59.848,40.664 59.32,43.4 59.32,45.008 Z M62.872,46.064 C63.052,46.064 63.172,46.22 63.172,46.388 C63.172,46.712 62.968,47.336 62.572,47.336 C62.392,47.336 62.296,47.18 62.296,47.012 C62.296,46.736 62.524,46.064 62.872,46.064 Z M69.82,39.464 L68.548,42.044 C68.152,42.848 67.84,43.7 67.696,44.564 L67.72,44.588 C68.188,44.024 70.324,40.616 71.704,39.032 C71.92,38.792 72.28,38.312 72.628,38.312 C72.868,38.312 73,38.384 73.012,38.588 C73.036,39.032 71.764,41.108 71.692,41.228 C71.152,42.188 69.772,45.212 69.772,46.232 C69.772,46.268 69.82,46.496 69.796,46.712 C69.772,46.928 69.676,47.132 69.412,47.132 C69.112,47.132 69.04,46.724 69.04,46.484 C69.04,44.984 70.516,42.128 71.956,39.644 L71.932,39.62 C70.9,40.76 69.988,42.044 69.16,43.352 L68.476,44.42 C67.384,46.124 66.988,45.272 66.988,44.9 C66.988,43.496 68.152,41.288 68.824,40.052 L68.8,40.028 C68.02,40.832 67.408,41.792 66.88,42.776 L65.092,46.112 C64.852,46.568 64.684,47.42 64.168,47.468 C64.048,47.48 63.82,47.432 64.096,46.808 L64.456,45.968 C65.044,44.564 65.992,42.872 66.916,41.624 C67.78,40.448 69.028,38.648 69.532,38.528 C69.808,38.468 70.228,38.672 69.82,39.464 Z M75.988,39.836 L75.676,40.16 C73.06,42.896 72.592,44.768 72.592,45.656 C72.592,46.016 72.724,46.364 73.144,46.364 C74.332,46.364 77.524,42.428 77.524,40.304 C77.524,39.68 77.14,39.248 76.516,39.248 L76.132,39.272 C76.324,39.464 76.252,39.572 75.988,39.836 Z M78.244,40.232 C78.244,41.552 77.236,43.208 76.468,44.252 C75.772,45.188 74.152,47.132 72.916,47.132 C72.208,47.132 71.872,46.436 71.872,45.812 C71.872,43.628 74.152,40.664 75.808,39.332 C75.412,39.38 75.064,39.572 74.716,39.764 C74.656,39.788 74.572,39.836 74.5,39.836 C74.44,39.836 73.78,39.548 74.692,39.08 C75.484,38.672 76.192,38.516 76.756,38.588 C77.68,38.708 78.232,39.332 78.244,40.232 Z M81.904,39.476 C80.428,39.704 79.624,39.98 79.624,39.992 C79.108,40.124 78.964,39.98 78.964,39.74 C78.964,39.368 79.468,39.32 79.72,39.248 C81.484,38.768 83.296,38.468 85.132,38.468 C85.984,38.468 86.02,38.588 86.02,38.78 C86.02,39.032 85.936,39.092 85.048,39.152 C83.596,39.248 82.864,39.26 82.432,39.356 C82.684,39.452 82.612,39.608 82.396,39.968 C81.364,41.444 79.324,45.128 78.952,46.82 C78.916,46.964 78.856,47.204 78.664,47.204 C78.412,47.204 78.244,46.952 78.244,46.724 C78.244,46.172 79.12,44.396 79.396,43.832 C80.8,41.312 81.676,39.848 81.904,39.476 Z M86.716,40.472 C84.196,44.144 83.836,45.8 83.716,46.34 C83.68,46.52 83.62,46.784 83.38,46.784 C83.188,46.784 83.044,46.568 83.044,46.388 C83.044,45.8 83.656,44.276 84.028,43.64 C85.132,41.744 86.392,39.428 87.244,38.672 C87.424,38.516 87.664,38.792 87.664,38.936 C87.664,39.236 87.052,39.992 86.716,40.472 Z M90.196,39.836 L89.884,40.16 C87.268,42.896 86.8,44.768 86.8,45.656 C86.8,46.016 86.932,46.364 87.352,46.364 C88.54,46.364 91.732,42.428 91.732,40.304 C91.732,39.68 91.348,39.248 90.724,39.248 L90.34,39.272 C90.532,39.464 90.46,39.572 90.196,39.836 Z M92.452,40.232 C92.452,41.552 91.444,43.208 90.676,44.252 C89.98,45.188 88.36,47.132 87.124,47.132 C86.416,47.132 86.08,46.436 86.08,45.812 C86.08,43.628 88.36,40.664 90.016,39.332 C89.62,39.38 89.272,39.572 88.924,39.764 C88.864,39.788 88.78,39.836 88.708,39.836 C88.648,39.836 87.988,39.548 88.9,39.08 C89.692,38.672 90.4,38.516 90.964,38.588 C91.888,38.708 92.44,39.332 92.452,40.232 Z M95.296,45.008 L95.308,45.608 L95.332,45.608 L97.18,41.54 L98.296,39.464 C98.476,39.14 98.896,38.288 99.34,38.288 C99.616,38.288 99.664,38.444 99.112,39.272 C97.84,41.288 96.724,43.4 95.956,45.656 C95.812,46.088 95.548,47.012 94.96,47.012 C94.756,47.012 94.672,46.832 94.624,46.628 C94.552,46.208 94.54,43.856 95.416,40.28 L95.392,40.256 C94.372,41.48 92.848,44.216 92.236,46.1 C92.14,46.424 91.996,47.108 91.54,47.108 C91.396,47.108 91.312,46.964 91.312,46.832 C91.312,46.424 92.248,44.252 93.724,41.912 C94.66,40.424 95.596,38.624 96.244,38.66 C96.376,38.672 96.58,38.78 96.4,39.152 C95.824,40.664 95.296,43.4 95.296,45.008 Z M98.848,46.064 C99.028,46.064 99.148,46.22 99.148,46.388 C99.148,46.712 98.944,47.336 98.548,47.336 C98.368,47.336 98.272,47.18 98.272,47.012 C98.272,46.736 98.5,46.064 98.848,46.064 Z M102.34,41.468 C103.024,40.496 104.608,38.564 105.832,38.576 C106.936,38.588 106.9,39.992 105.892,41.384 C105.748,41.588 105.16,42.32 104.848,42.32 C104.704,42.32 104.176,42.044 104.896,41.48 C105.76,40.844 106.216,39.932 106.216,39.5 C106.216,39.284 106.144,39.092 105.892,39.092 C104.788,39.092 101.332,43.016 101.332,45.56 C101.332,46.088 101.656,46.628 102.232,46.628 C103.168,46.628 104.596,44.912 105.004,44.132 C105.172,43.832 105.364,43.952 105.364,44.096 C105.364,44.528 103.588,47.228 101.944,47.228 C101.2,47.228 100.624,46.748 100.564,45.788 C100.516,44.816 100.996,43.376 102.34,41.468 Z M110.056,39.836 L109.744,40.16 C107.128,42.896 106.66,44.768 106.66,45.656 C106.66,46.016 106.792,46.364 107.212,46.364 C108.4,46.364 111.592,42.428 111.592,40.304 C111.592,39.68 111.208,39.248 110.584,39.248 L110.2,39.272 C110.392,39.464 110.32,39.572 110.056,39.836 Z M112.312,40.232 C112.312,41.552 111.304,43.208 110.536,44.252 C109.84,45.188 108.22,47.132 106.984,47.132 C106.276,47.132 105.94,46.436 105.94,45.812 C105.94,43.628 108.22,40.664 109.876,39.332 C109.48,39.38 109.132,39.572 108.784,39.764 C108.724,39.788 108.64,39.836 108.568,39.836 C108.508,39.836 107.848,39.548 108.76,39.08 C109.552,38.672 110.26,38.516 110.824,38.588 C111.748,38.708 112.3,39.332 112.312,40.232 Z M115.156,45.008 L115.168,45.608 L115.192,45.608 L117.04,41.54 L118.156,39.464 C118.336,39.14 118.756,38.288 119.2,38.288 C119.476,38.288 119.524,38.444 118.972,39.272 C117.7,41.288 116.584,43.4 115.816,45.656 C115.672,46.088 115.408,47.012 114.82,47.012 C114.616,47.012 114.532,46.832 114.484,46.628 C114.412,46.208 114.4,43.856 115.276,40.28 L115.252,40.256 C114.232,41.48 112.708,44.216 112.096,46.1 C112,46.424 111.856,47.108 111.4,47.108 C111.256,47.108 111.172,46.964 111.172,46.832 C111.172,46.424 112.108,44.252 113.584,41.912 C114.52,40.424 115.456,38.624 116.104,38.66 C116.236,38.672 116.44,38.78 116.26,39.152 C115.684,40.664 115.156,43.4 115.156,45.008 Z M122.284,39.476 C120.808,39.704 120.004,39.98 120.004,39.992 C119.488,40.124 119.344,39.98 119.344,39.74 C119.344,39.368 119.848,39.32 120.1,39.248 C121.864,38.768 123.676,38.468 125.512,38.468 C126.364,38.468 126.4,38.588 126.4,38.78 C126.4,39.032 126.316,39.092 125.428,39.152 C123.976,39.248 123.244,39.26 122.812,39.356 C123.064,39.452 122.992,39.608 122.776,39.968 C121.744,41.444 119.704,45.128 119.332,46.82 C119.296,46.964 119.236,47.204 119.044,47.204 C118.792,47.204 118.624,46.952 118.624,46.724 C118.624,46.172 119.5,44.396 119.776,43.832 C121.18,41.312 122.056,39.848 122.284,39.476 Z M127.564,39.608 L126.088,42.464 C127.396,42.56 128.284,42.008 128.968,41.444 C129.604,40.94 129.808,40.28 129.82,39.992 C129.832,39.452 129.172,38.804 127.564,39.608 Z M126.217055,40.1142553 C126.172706,40.0317862 125.671193,39.7099775 127.108,39.068 C127.204,38.624 127.372,38.504 127.528,38.516 C127.684,38.528 127.828,38.66 127.876,38.756 C128.728,38.468 129.352,38.552 129.76,38.804 C130.168,39.056 130.372,39.476 130.372,39.896 C130.372,40.916 129.748,41.744 128.932,42.284 C128.116,42.836 127.096,43.124 126.124,43.124 L125.764,43.112 C125.824,43.376 125.776,43.436 127.252,46.292 C127.324,46.436 127.456,46.58 127.456,46.748 C127.456,46.904 127.228,47.072 127.084,47.072 C126.94,47.072 126.808,46.904 126.712,46.736 C126.316,45.932 125.872,44.984 125.332,43.796 L124.204,46.304 L124.072,46.676 C124,46.892 123.94,47 123.688,47 C123.52,47 123.388,46.868 123.388,46.712 C123.388,46.172 124.624,43.7 124.996,43.112 C124.78,42.452 125.068,42.14 125.464,42.344 L126.076,41.288 C126.328,40.868 126.556,40.412 126.736,39.944 C126.633234,39.9782552 126.432684,40.1211605 126.217055,40.1142553 L126.217055,40.1142553 Z M133.3,39.836 L132.988,40.16 C130.372,42.896 129.904,44.768 129.904,45.656 C129.904,46.016 130.036,46.364 130.456,46.364 C131.644,46.364 134.836,42.428 134.836,40.304 C134.836,39.68 134.452,39.248 133.828,39.248 L133.444,39.272 C133.636,39.464 133.564,39.572 133.3,39.836 Z M135.556,40.232 C135.556,41.552 134.548,43.208 133.78,44.252 C133.084,45.188 131.464,47.132 130.228,47.132 C129.52,47.132 129.184,46.436 129.184,45.812 C129.184,43.628 131.464,40.664 133.12,39.332 C132.724,39.38 132.376,39.572 132.028,39.764 C131.968,39.788 131.884,39.836 131.812,39.836 C131.752,39.836 131.092,39.548 132.004,39.08 C132.796,38.672 133.504,38.516 134.068,38.588 C134.992,38.708 135.544,39.332 135.556,40.232 Z M136.228,43.484 C135.76,44.288 135.28,45.104 135.016,46.004 C137.38,45.296 137.776,45.392 137.776,45.836 C137.776,46.304 137.176,46.136 137.092,46.136 C136.588,46.136 135.988,46.34 135.532,46.544 C135.292,46.652 135.1,46.736 134.692,46.808 C134.368,46.868 134.08,46.556 134.248,46.064 C134.644,44.864 135.34,43.544 136.948,41.252 L138.256,39.464 C138.4,39.272 138.7,38.804 138.964,38.804 C139.108,38.804 139.288,38.936 139.252,39.08 C139.132,39.56 136.852,42.416 136.228,43.484 Z" id="VISION.MOTION.CONTROL"></path>
                    <path d="M0.75390625,1.1171875 L4.11328125,1.1171875 L4.11328125,10.8046875 L9.2890625,10.8046875 L9.2890625,1.1171875 L12.6484375,1.1171875 L12.6484375,26 L9.2890625,26 L9.2890625,13.6367188 L4.11328125,13.6367188 L4.11328125,26 L0.75390625,26 L0.75390625,1.1171875 Z M26.4375,26 L17.4335938,26 L17.4335938,1.1171875 L26.28125,1.1171875 L26.28125,3.96875 L20.7539062,3.96875 L20.7539062,11.8398438 L25.8710938,11.8398438 L25.8710938,14.671875 L20.7539062,14.671875 L20.7539062,23.2460938 L26.4375,23.2460938 L26.4375,26 Z M30.8515625,1.1171875 L34.2109375,1.1171875 L34.2109375,26 L30.8515625,26 L30.8515625,1.1171875 Z M47.6484375,4.3203125 C46.554682,3.73437207 45.5716189,3.44140625 44.6992188,3.44140625 C43.8268186,3.44140625 43.0813833,3.75390313 42.4628906,4.37890625 C41.8443979,5.00390937 41.5351562,5.75911016 41.5351562,6.64453125 C41.5351562,7.26953437 41.7174461,7.93684541 42.0820312,8.64648438 C42.4466164,9.35612334 43.2766862,10.4889245 44.5722656,12.0449219 C45.867845,13.6009192 46.8574185,14.9518172 47.5410156,16.0976562 C48.2246128,17.2434953 48.5664062,18.5585863 48.5664062,20.0429688 C48.5664062,21.8919363 48.0097712,23.3925724 46.8964844,24.5449219 C45.7831976,25.6972714 44.328134,26.2734375 42.53125,26.2734375 C41.5416617,26.2734375 40.3307363,25.9804717 38.8984375,25.3945312 L38.8984375,22.40625 C38.9375002,22.4192709 38.9765623,22.438802 39.015625,22.4648438 C39.2109385,22.6080736 39.6210906,22.8261704 40.2460938,23.1191406 C40.8710969,23.4121108 41.4830699,23.5585938 42.0820312,23.5585938 C43.0585986,23.5585938 43.8626271,23.2330762 44.4941406,22.5820312 C45.1256542,21.9309863 45.4414062,21.0976613 45.4414062,20.0820312 C45.4414062,19.3789027 45.2819026,18.7278676 44.9628906,18.1289062 C44.6438786,17.5299449 44.0612021,16.716151 43.2148438,15.6875 L40.96875,12.9335938 C40.0963498,11.8658801 39.451825,10.8893273 39.0351562,10.0039062 C38.6184875,9.11848516 38.4101562,8.0638082 38.4101562,6.83984375 C38.4101562,5.02993887 38.9374947,3.55859941 39.9921875,2.42578125 C41.0468803,1.29296309 42.4140541,0.7265625 44.09375,0.7265625 C45.2656309,0.7265625 46.4505148,1.01952832 47.6484375,1.60546875 L47.6484375,4.3203125 Z M61.4570312,26 L52.453125,26 L52.453125,1.1171875 L61.3007812,1.1171875 L61.3007812,3.96875 L55.7734375,3.96875 L55.7734375,11.8398438 L60.890625,11.8398438 L60.890625,14.671875 L55.7734375,14.671875 L55.7734375,23.2460938 L61.4570312,23.2460938 L61.4570312,26 Z M77.140625,26 L74.5039062,26 L68.15625,8.9296875 L68.078125,8.9296875 L68.078125,26 L65.0703125,26 L65.0703125,1.1171875 L67.7460938,1.1171875 L74.1132812,18.2070312 L74.1914062,18.2070312 L74.1914062,1.1171875 L77.140625,1.1171875 L77.140625,26 Z M82.0625,1.1171875 L85.9882812,1.1171875 C88.1237086,1.1171875 89.6992137,1.6412708 90.7148438,2.68945312 C91.7304738,3.73763545 92.2382812,5.37498887 92.2382812,7.6015625 C92.2382812,10.7526199 91.0338662,12.7512979 88.625,13.5976562 C91.2422006,14.1315131 92.5507812,16.2018049 92.5507812,19.8085938 C92.5507812,21.7877703 92.0755256,23.3144478 91.125,24.3886719 C90.1744744,25.462896 88.8203213,26 87.0625,26 L82.0625,26 L82.0625,1.1171875 Z M85.3828125,3.67578125 L85.3828125,12.328125 C86.6588605,12.2890623 87.5865856,11.9570344 88.1660156,11.3320312 C88.7454456,10.7070281 89.0351562,9.61979941 89.0351562,8.0703125 C89.0351562,6.3906166 88.7845077,5.23828437 88.2832031,4.61328125 C87.7818985,3.98827813 86.8151113,3.67578125 85.3828125,3.67578125 Z M85.3828125,14.8085938 L85.3828125,23.4804688 C86.7109441,23.454427 87.6582003,23.1647163 88.2246094,22.6113281 C88.7910185,22.0579399 89.0742188,20.9739664 89.0742188,19.359375 C89.0742188,17.6406164 88.7877633,16.4557324 88.2148438,15.8046875 C87.6419242,15.1536426 86.6979232,14.8216146 85.3828125,14.8085938 Z M105.675781,26 L96.671875,26 L96.671875,1.1171875 L105.519531,1.1171875 L105.519531,3.96875 L99.9921875,3.96875 L99.9921875,11.8398438 L105.109375,11.8398438 L105.109375,14.671875 L99.9921875,14.671875 L99.9921875,23.2460938 L105.675781,23.2460938 L105.675781,26 Z M120.558594,26 L117.082031,26 L113.175781,14.3203125 L112.882812,14.3203125 L112.882812,26 L109.523438,26 L109.523438,1.1171875 L114.171875,1.1171875 C117.960956,1.1171875 119.855469,3.23956211 119.855469,7.484375 C119.855469,9.41146797 119.575524,10.8632764 119.015625,11.8398438 C118.455726,12.8164111 117.544277,13.5520809 116.28125,14.046875 L120.558594,26 Z M112.882812,12.0351562 C114.184902,12.0091145 115.125648,11.6998728 115.705078,11.1074219 C116.284508,10.514971 116.574219,9.43750781 116.574219,7.875 C116.574219,6.37759668 116.31055,5.30989902 115.783203,4.671875 C115.255857,4.03385098 114.354173,3.71484375 113.078125,3.71484375 L112.882812,3.71484375 L112.882812,12.0351562 Z M136.90625,17.1914062 C136.90625,20.0560039 136.417974,22.279289 135.441406,23.8613281 C134.464839,25.4433673 132.739596,26.234375 130.265625,26.234375 C128.052072,26.234375 126.450526,25.4173259 125.460938,23.7832031 C124.471349,22.1490804 123.976562,19.0078357 123.976562,14.359375 C123.976562,13.8124973 124.035156,12.3574337 124.152344,9.99414062 C124.269532,7.63084756 124.442056,6.02930107 124.669922,5.18945312 C124.897788,4.34960518 125.278643,3.56836299 125.8125,2.84570312 C126.346357,2.12304326 127.023433,1.58268408 127.84375,1.22460938 C128.664067,0.866534668 129.627599,0.6875 130.734375,0.6875 C132.296883,0.6875 133.644526,1.15950049 134.777344,2.10351562 C135.910162,3.04753076 136.535156,4.29426309 136.652344,5.84375 L133.488281,6.99609375 C133.227863,4.60024844 132.309904,3.40234375 130.734375,3.40234375 C129.523431,3.40234375 128.680341,4.02408232 128.205078,5.26757812 C127.729815,6.51107393 127.492188,8.5716002 127.492188,11.4492188 L127.492188,12.71875 C127.492188,14.385425 127.54427,15.977206 127.648438,17.4941406 C127.752605,19.0110753 127.85026,20.1210902 127.941406,20.8242188 C128.032553,21.5273473 128.221353,22.0872375 128.507812,22.5039062 C128.794272,22.920575 129.097004,23.2005201 129.416016,23.34375 C129.735028,23.4869799 130.109373,23.5585938 130.539062,23.5585938 C131.346358,23.5585938 131.971352,23.3112004 132.414062,22.8164062 C132.856773,22.3216121 133.16276,21.6087286 133.332031,20.6777344 C133.501303,19.7467401 133.585938,18.1614695 133.585938,15.921875 L130.539062,15.921875 L130.539062,12.9921875 L136.90625,12.9921875 L136.90625,17.1914062 Z" id="HEISENBERG"></path>
                </g>
            </g>
        </g>
    </g>
</svg>