<?xml version="1.0" encoding="UTF-8"?>
<svg width="100px" height="100px" viewBox="0 0 100 100" version="1.1" xmlns="http://www.w3.org/2000/svg" xmlns:xlink="http://www.w3.org/1999/xlink">
    <!-- Generator: Sketch 53.2 (72643) - https://sketchapp.com -->
    <title>人行管理</title>
    <desc>Created with Sketch.</desc>
    <g id="Page-1" stroke="none" stroke-width="1" fill="none" fill-rule="evenodd">
        <g id="机器视觉-copy" transform="translate(-190.000000, -1580.000000)">
            <g id="分组-3" transform="translate(0.000000, 1410.000000)">
                <g id="人行管理">
                    <g id="renxing-icon" transform="translate(190.000000, 170.000000)">
                        <rect id="矩形" x="0" y="0" width="100" height="100"></rect>
                        <path d="M50,65.8333333 C39.4145423,65.8333333 30.8333333,57.2521244 30.8333333,46.6666667 C30.8333333,36.081209 39.4145423,27.5 50,27.5 C60.5854577,27.5 69.1666667,36.081209 69.1666667,46.6666667 C69.1666667,57.2521244 60.5854577,65.8333333 50,65.8333333 Z M50,60.8333333 C57.824034,60.8333333 64.1666667,54.4907006 64.1666667,46.6666667 C64.1666667,38.8426327 57.824034,32.5 50,32.5 C42.175966,32.5 35.8333333,38.8426327 35.8333333,46.6666667 C35.8333333,54.4907006 42.175966,60.8333333 50,60.8333333 Z M29.7364469,80.9588632 C29.6513661,82.2961335 28.5232457,83.3096106 27.2167195,83.2225276 C25.9101933,83.1354447 24.9200162,81.9807783 25.0050971,80.643508 C25.632702,70.7790407 36.754434,60.8333333 50.0160419,60.8333333 C63.4625189,60.8333333 75,71.062717 75,80.9068627 C75,82.2469654 73.9386079,83.3333333 72.6293144,83.3333333 C71.320021,83.3333333 70.2586289,82.2469654 70.2586289,80.9068627 C70.2586289,77.9921474 68.251638,74.2207464 64.8560687,71.2101602 C60.9447316,67.742283 55.7487603,65.6862745 50.0160419,65.6862745 C44.3068376,65.6862745 39.2162484,67.7214314 35.3373321,71.1901867 C32.0052552,74.169926 29.9273045,77.9590334 29.7364469,80.9588632 Z M74.296683,20.8333333 L24.5792386,20.8333333 C22.0501716,20.8333333 20,22.8834159 20,25.4122694 L20,75.130331 C20,77.7437291 22.1335569,80 24.5792386,80 L74.5874281,80 C77.0331097,80 79.1666667,77.7437291 79.1666667,75.130331 L79.1666667,25.7030034 C79.1666667,23.0135824 76.9863236,20.8333333 74.296683,20.8333333 Z M74.559549,15.8333333 C79.8653904,15.8333333 84.1666667,20.1344244 84.1666667,25.4401395 L84.1666667,74.5598616 C84.1666667,79.7322109 79.9733918,84.1666667 74.8484846,84.1666667 L25.1515154,84.1666667 C20.0266082,84.1666667 15.8333333,79.7322109 15.8333333,74.5598616 L15.8333333,25.1512147 C15.8333333,20.0050676 20.0052486,15.8333333 25.1515154,15.8333333 L74.559549,15.8333333 Z" id="Avatar" fill="#FFFFFF" fill-rule="nonzero"></path>
                    </g>
                </g>
            </g>
        </g>
    </g>
</svg>