<?xml version="1.0" encoding="UTF-8"?>
<svg width="100px" height="100px" viewBox="0 0 100 100" version="1.1" xmlns="http://www.w3.org/2000/svg" xmlns:xlink="http://www.w3.org/1999/xlink">
    <!-- Generator: Sketch 53.2 (72643) - https://sketchapp.com -->
    <title>安全架构</title>
    <desc>Created with Sketch.</desc>
    <g id="Page-1" stroke="none" stroke-width="1" fill="none" fill-rule="evenodd">
        <g id="电机系统集成" transform="translate(-910.000000, -1580.000000)" fill="#FFFFFF" fill-rule="nonzero">
            <g id="核心产品-copy" transform="translate(-34.000000, 1000.000000)">
                <g id="分组-3" transform="translate(34.000000, 410.000000)">
                    <g id="地铁站台管理" transform="translate(640.000000, 0.000000)">
                        <g id="feiji" transform="translate(270.000000, 168.000000)">
                            <g id="zuzhijiagou" transform="translate(0.000000, 2.000000)">
                                <path d="M75.0039045,28.9437888 L85.0013014,28.9437888 C87.7569613,28.9437888 89.9999999,26.7076303 90,23.9578415 L90,13.9859472 C90,11.2361585 87.7569613,9.00000009 85.0013014,9 L75.0039045,9 C72.2482447,9 70.0052061,11.2361585 70.005206,13.9859472 L70.005206,16.4788749 L54.3427397,16.4788749 C52.9612862,16.4788749 51.8433904,17.5951194 51.8433905,18.9718944 L51.8433905,45.6046187 L40.7598384,45.6046187 L40.7598384,35.6327243 C40.7598384,32.8829356 38.5167998,30.6467772 35.7611399,30.6467772 L14.9986986,30.6467772 C12.2418461,30.6467772 10.0000001,32.8829357 10,35.6327243 L10,60.5624603 C10,63.312249 12.2418461,65.5484074 14.9986986,65.5484074 L35.7611399,65.5484074 C38.5167997,65.5484074 40.7598383,63.3122489 40.7598384,60.5624603 L40.7598384,50.5905659 L51.8433905,50.5905659 L51.8433905,77.2244828 C51.8433905,78.6012577 52.9612863,79.7175022 54.3427397,79.7175022 L69.9636495,79.7175022 C69.9775935,79.7175022 69.9912621,79.7166766 70.0051142,79.7164931 L70.0051142,82.2105217 C70.0051142,84.9603104 72.2481529,87.1964688 75.0038128,87.1964689 L85.0012098,87.1964689 C87.7568696,87.1964689 89.9999083,84.9603104 89.9999083,82.2105217 L89.9999083,72.2385356 C89.9999083,69.4887468 87.7568696,67.2525884 85.0012098,67.2525884 L75.0038128,67.2525884 C72.248153,67.2525884 70.0051143,69.4887469 70.0051142,72.2385356 L70.0051142,74.7325641 C69.9912621,74.7322889 69.9775017,74.731555 69.9636495,74.731555 L56.842089,74.731555 L56.842089,50.5905659 L70.005206,50.5905659 L70.005206,53.5412566 C70.005206,56.2910453 72.2482446,58.5272037 75.0039045,58.5272038 L85.0013014,58.5272038 C87.7569613,58.5272038 89.9999999,56.2910453 90,53.5412566 L90,43.5693623 C90,40.8195735 87.7569613,38.5834151 85.0013014,38.5834151 L75.0039045,38.5834151 C72.2482447,38.5834151 70.0052061,40.8195736 70.005206,43.5693623 L70.005206,45.6046187 L56.842089,45.6046187 L56.842089,21.4649139 L70.005206,21.4649139 L70.005206,23.9578415 C70.005206,26.707722 72.2482446,28.9437887 75.0039045,28.9437888 Z M75.0039045,13.9859472 L85.0013014,13.9859472 L85.0037783,23.9578415 L75.0039045,23.9578415 L75.0039045,13.9859472 L75.0039045,13.9859472 Z M14.9986986,60.5624603 L14.9986986,35.6327243 L35.7611399,35.6327243 L35.7636168,60.5624603 L14.9986986,60.5624603 L14.9986986,60.5624603 Z M75.0039045,72.2385356 L85.0013014,72.2385356 L85.0037783,82.2104299 L75.0039045,82.2104299 L75.0039045,72.2385356 L75.0039045,72.2385356 Z M75.0039045,43.5693623 L85.0013014,43.5693623 L85.0037783,53.5412566 L75.0039045,53.5412566 L75.0039045,43.5693623 L75.0039045,43.5693623 Z" id="形状"></path>
                            </g>
                        </g>
                    </g>
                </g>
            </g>
        </g>
    </g>
</svg>