<?xml version="1.0" encoding="UTF-8"?>
<svg width="100px" height="100px" viewBox="0 0 100 100" version="1.1" xmlns="http://www.w3.org/2000/svg" xmlns:xlink="http://www.w3.org/1999/xlink">
    <!-- Generator: Sketch 53.2 (72643) - https://sketchapp.com -->
    <title>安全控制</title>
    <desc>Created with Sketch.</desc>
    <g id="Page-1" stroke="none" stroke-width="1" fill="none" fill-rule="evenodd">
        <g id="机器视觉-copy" transform="translate(-670.000000, -1580.000000)">
            <g id="分组-3" transform="translate(0.000000, 1410.000000)">
                <g id="安全控制" transform="translate(480.000000, 0.000000)">
                    <g id="safe-icon" transform="translate(190.000000, 170.000000)">
                        <rect id="矩形" x="0" y="0" width="100" height="100"></rect>
                        <path d="M53.8305665,79.6185869 C52.2531525,80.4591709 51.107049,80.8333333 50.1157304,80.8333333 C49.1174552,80.8333333 48.0043957,80.4625879 46.4008944,79.5912508 C19.6474658,65.0706737 19.7361628,57.1175867 20.0648632,27.5245859 C20.0979072,24.5825416 20.1326902,21.4423109 20.1431252,18.0782661 C24.2875326,16.8720622 28.7189007,15.7341984 33.341576,14.6920108 C38.3903443,13.5524385 44.0060773,12.8160733 50.0287727,12.5 C61.4880679,13.7489165 70.2777596,15.3959146 79.7978966,18.0936427 C79.8152882,21.8950644 79.8657237,25.4060406 79.9092026,28.6590326 C80.3248607,58.4040904 80.4257317,65.4721723 53.8305665,79.6185869 M84.9085683,28.6511066 C84.8567144,24.8876616 84.7996751,20.7819302 84.7910328,16.2726079 C84.7893044,15.1469802 84.0374233,14.15418 82.9415783,13.8323288 C72.3772174,10.7091803 62.9467277,8.87854525 50.385993,7.51450925 C50.247716,7.49918307 50.1077106,7.49748014 49.9694336,7.50258884 C43.6017789,7.826143 37.6506836,8.60607865 32.2803515,9.82025798 C26.8771787,11.0429519 21.7246329,12.3950675 16.9713619,13.8374375 C15.8858876,14.1661004 15.1426489,15.1571977 15.1426489,16.2777166 C15.1426489,20.3357662 15.0994374,24.0719645 15.0631396,27.5339935 C14.7347318,56.987634 14.612011,68.0089084 43.9129021,83.9584225 C46.3292922,85.2730739 48.1839321,85.8333333 50.1128959,85.8333333 C52.0072905,85.8333333 53.9085989,85.2696681 56.2748636,84.0078071 C85.4634046,68.4329345 85.3354984,59.2099398 84.9085683,28.6511066 M68.2610856,29.3410454 L44.8824953,52.5647048 L33.4057956,41.1675447 C32.0593573,39.8316326 29.869451,39.8265011 28.5160992,41.1589921 C27.1644758,42.4931937 27.161019,44.6587054 28.5074571,45.9980385 L42.4333261,59.8275506 C43.0832114,60.4707041 43.9629766,60.8333333 44.8824953,60.8333333 C45.802014,60.8333333 46.6835075,60.4707041 47.3316645,59.8258401 L73.1594241,34.1681182 C74.5058622,32.8304956 74.5024053,30.6632733 73.1490536,29.3307823 C71.7991586,27.9982913 69.6075238,28.0000018 68.2610856,29.3410454" id="形状" fill="#FFFFFF" fill-rule="nonzero"></path>
                    </g>
                </g>
            </g>
        </g>
    </g>
</svg>