<?xml version="1.0" encoding="UTF-8"?>
<svg width="80px" height="80px" viewBox="0 0 80 80" version="1.1" xmlns="http://www.w3.org/2000/svg" xmlns:xlink="http://www.w3.org/1999/xlink">
    <!-- Generator: Sketch 53.2 (72643) - https://sketchapp.com -->
    <title>icon_06</title>
    <desc>Created with Sketch.</desc>
    <g id="Page-1" stroke="none" stroke-width="1" fill="none" fill-rule="evenodd">
        <g id="电机系统集成" transform="translate(-1321.000000, -1207.000000)">
            <g id="核心产品-copy" transform="translate(-34.000000, 1000.000000)">
                <g id="分组-7" transform="translate(35.000000, 80.000000)">
                    <g id="分组-4" transform="translate(0.000000, 110.000000)">
                        <g id="分组-5" transform="translate(1320.000000, 17.000000)">
                            <rect id="矩形" x="0" y="0" width="80" height="80"></rect>
                            <g id="chouxiangdianzijishu" transform="translate(9.200000, 10.800000)" fill-rule="nonzero">
                                <path d="M17.9580984,43.1780504 C25.5544224,50.5509782 37.6893986,50.3698798 45.0623264,42.7735558 C52.4352542,35.1772318 52.2541558,23.0422556 44.6578318,15.6693278 C37.0615078,8.29640003 24.9265316,8.47749844 17.5536038,16.0738224 C10.180676,23.6701464 10.3617745,35.8051226 17.9580984,43.1780504 Z" id="路径" fill="#E9EAEB"></path>
                                <path d="M59.8354745,35.6801702 L57.81782,35.2766394 C58.2213509,33.3598677 58.5239991,31.2413304 58.5239991,29.2236759 C58.5239991,14.2930328 46.3171895,2.0862232 31.3865463,2.0862232 C23.3159284,2.0862232 15.7497241,5.61711852 10.5038225,11.8718474 L9.09146438,10.560372 C14.6400142,3.90211227 22.8115148,0.06856875 31.4874291,0.06856875 C47.5277822,0.06856875 60.6425363,13.1833228 60.6425363,29.2236759 C60.5416535,31.3422131 60.339888,33.561633 59.8354745,35.6801702 L59.8354745,35.6801702 Z M2.83673547,34.671343 C2.53408727,32.8554539 2.33232188,31.0395649 2.33232188,29.2236759 C2.33232188,27.2060215 2.53408734,25.188367 2.9376182,23.1707125 L4.95527273,23.5742434 C4.55174188,25.3901324 4.34997641,27.3069041 4.34997633,29.2236759 C4.34997633,30.9386823 4.5517418,32.6536885 4.85439,34.2678121 L2.83673547,34.671343 Z M11.411767,50.3081652 C10.1002916,48.9966898 8.78881625,47.5843317 7.67910625,46.0710908 L9.29322984,44.8604981 C10.3020571,46.2728563 11.411767,47.5843316 12.7232424,48.7949244 L11.411767,50.3081652 L11.411767,50.3081652 Z M50.0498502,51.6196406 L48.7383748,50.1063998 C50.150733,48.8958071 51.4622084,47.5843316 52.6728011,46.0710908 L54.2869247,47.2816835 C53.076332,48.8958071 51.6639739,50.3081652 50.0498502,51.6196406 Z" id="形状" fill="#BCC0C4"></path>
                                <path d="M6.06498266,39.5137137 L27.2503547,39.5137137 L27.2503547,41.5313682 L6.06498266,41.5313682 L6.06498266,39.5137137 Z M44.4004177,30.4342686 L32.4962563,30.4342686 C31.1847809,30.4342686 29.3688919,29.7280895 28.4609473,28.5174969 L22.004453,18.3283417 C21.6009222,17.8239281 20.6929777,17.3195145 19.7850331,17.3195145 L5.05615539,17.3195145 L5.05615539,15.30186 L19.7850331,15.30186 C21.0965085,15.30186 22.8115148,16.0080391 23.6185766,17.2186318 L30.0750709,27.4077869 C30.3777191,27.9122005 31.4874291,28.4166141 32.3953736,28.4166141 L44.299535,28.4166141 L44.299535,30.4342686 L44.4004177,30.4342686 Z M29.5706573,54.6461223 L17.1620823,54.6461223 L17.1620823,52.6284678 L29.5706573,52.6284678 C30.4786019,52.6284678 31.4874291,52.1240542 31.89096,51.6196406 L38.3474543,41.9348991 C39.2553988,40.522541 41.2730533,40.522541 42.1809978,40.522541 L56.4054619,40.522541 L56.4054619,42.5401955 L42.2818805,42.5401955 C41.777467,42.5401955 40.4659915,42.5401955 40.0624606,43.0446091 L33.6059662,52.7293505 C32.7989045,53.9399432 30.9830155,54.6461223 29.5706573,54.6461223 Z M34.3121453,17.3195145 L44.4004177,17.3195145 L44.4004177,19.337169 L34.3121453,19.337169 L34.3121453,17.3195145 Z M46.4180722,17.3195145 L48.4357266,17.3195145 L48.4357266,19.337169 L46.4180722,19.337169 L46.4180722,17.3195145 Z M50.4533812,17.3195145 L52.4710356,17.3195145 L52.4710356,19.337169 L50.4533812,19.337169 L50.4533812,17.3195145 Z M24.223873,56.6637768 L26.2415274,56.6637768 L26.2415274,58.6814312 L24.223873,58.6814312 L24.223873,56.6637768 Z M28.2591819,56.6637768 L30.2768364,56.6637768 L30.2768364,58.6814312 L28.2591819,58.6814312 L28.2591819,56.6637768 Z M32.2944909,56.6637768 L34.3121453,56.6637768 L34.3121453,58.6814312 L32.2944909,58.6814312 L32.2944909,56.6637768 Z M12.1179461,35.4784048 L14.1356005,35.4784048 L14.1356005,37.4960593 L12.1179461,37.4960593 L12.1179461,35.4784048 Z M16.1532551,35.4784048 L18.1709095,35.4784048 L18.1709095,37.4960593 L16.1532551,37.4960593 L16.1532551,35.4784048 Z M20.188564,35.4784048 L22.2062184,35.4784048 L22.2062184,37.4960593 L20.188564,37.4960593 L20.188564,35.4784048 Z M39.3562816,36.487232 L41.373936,36.487232 L41.373936,38.5048865 L39.3562816,38.5048865 L39.3562816,36.487232 Z M43.3915905,36.487232 L45.4092449,36.487232 L45.4092449,38.5048865 L43.3915905,38.5048865 L43.3915905,36.487232 Z M47.4268995,36.487232 L49.4445539,36.487232 L49.4445539,38.5048865 L47.4268995,38.5048865 L47.4268995,36.487232 Z M14.1356005,11.2665511 L16.1532551,11.2665511 L16.1532551,13.2842055 L14.1356005,13.2842055 L14.1356005,11.2665511 Z M18.1709095,11.2665511 L20.188564,11.2665511 L20.188564,13.2842055 L18.1709095,13.2842055 L18.1709095,11.2665511 Z M22.2062184,11.2665511 L24.223873,11.2665511 L24.223873,13.2842055 L22.2062184,13.2842055 L22.2062184,11.2665511 Z" id="形状" fill="#2A5082"></path>
                                <path d="M13.1267734,53.6372951 C13.1265727,55.0791058 13.8956544,56.4114798 15.1442657,57.1324431 C16.3928771,57.8534064 17.9312876,57.8534064 19.1798989,57.1324431 C20.4285102,56.4114798 21.1975919,55.0791058 21.1973913,53.6372951 C21.1975919,52.1954843 20.4285102,50.8631104 19.1798989,50.1421471 C17.9312876,49.4211838 16.3928771,49.4211838 15.1442657,50.1421471 C13.8956544,50.8631104 13.1265727,52.1954843 13.1267734,53.6372951 L13.1267734,53.6372951 Z" id="路径" fill="#A3D4FF"></path>
                                <path d="M39.3562816,53.6372951 C39.3560809,55.0791058 40.1251626,56.4114798 41.3737739,57.1324431 C42.6223853,57.8534064 44.1607958,57.8534064 45.4094071,57.1324431 C46.6580184,56.4114798 47.4271001,55.0791058 47.4268995,53.6372951 C47.4271001,52.1954843 46.6580184,50.8631104 45.4094071,50.1421471 C44.1607958,49.4211838 42.6223853,49.4211838 41.3737739,50.1421471 C40.1251626,50.8631104 39.3560809,52.1954843 39.3562816,53.6372951 L39.3562816,53.6372951 Z" id="路径" fill="#A3D4FF"></path>
                                <path d="M52.4710356,41.5313682 C52.470835,42.973179 53.2399167,44.3055529 54.488528,45.0265162 C55.7371393,45.7474795 57.2755498,45.7474795 58.5241611,45.0265162 C59.7727725,44.3055529 60.5418541,42.973179 60.5416535,41.5313682 C60.5418541,40.0895574 59.7727725,38.7571835 58.5241611,38.0362202 C57.2755498,37.3152569 55.7371393,37.3152569 54.488528,38.0362202 C53.2399167,38.7571835 52.470835,40.0895574 52.4710356,41.5313682 L52.4710356,41.5313682 Z" id="路径" fill="#A3D4FF"></path>
                                <path d="M24.223873,40.522541 C24.2236724,41.9643518 24.992754,43.2967257 26.2413653,44.017689 C27.4899767,44.7386523 29.0283872,44.7386523 30.2769985,44.017689 C31.5256098,43.2967257 32.2946915,41.9643518 32.2944909,40.522541 C32.2946915,39.0807303 31.5256098,37.7483563 30.2769985,37.027393 C29.0283872,36.3064297 27.4899767,36.3064297 26.2413653,37.027393 C24.992754,37.7483563 24.2236724,39.0807303 24.223873,40.522541 L24.223873,40.522541 Z" id="路径" fill="#A3D4FF"></path>
                                <path d="M14.1356005,28.4166141 C14.1353999,29.8584249 14.9044816,31.1907988 16.1530929,31.9117621 C17.4017042,32.6327254 18.9401147,32.6327254 20.1887261,31.9117621 C21.4373374,31.1907988 22.2064191,29.8584249 22.2062184,28.4166141 C22.2064191,26.9748034 21.4373374,25.6424295 20.1887261,24.9214662 C18.9401147,24.2005029 17.4017042,24.2005029 16.1530929,24.9214662 C14.9044816,25.6424295 14.1353999,26.9748034 14.1356005,28.4166141 L14.1356005,28.4166141 Z" id="路径" fill="#A3D4FF"></path>
                                <path d="M40.3651087,29.4254413 C40.3649081,30.8672521 41.1339898,32.199626 42.3826011,32.9205893 C43.6312124,33.6415526 45.1696229,33.6415526 46.4182343,32.9205893 C47.6668456,32.199626 48.4359273,30.8672521 48.4357266,29.4254413 C48.4359273,27.9836306 47.6668456,26.6512566 46.4182343,25.9302933 C45.1696229,25.20933 43.6312124,25.20933 42.3826011,25.9302933 C41.1339898,26.6512566 40.3649081,27.9836306 40.3651087,29.4254413 Z" id="路径" fill="#A3D4FF"></path>
                                <path d="M29.2680091,18.3283417 C29.2678085,19.7701525 30.0368902,21.1025264 31.2855015,21.8234897 C32.5341128,22.544453 34.0725233,22.544453 35.3211347,21.8234897 C36.569746,21.1025264 37.3388276,19.7701525 37.338627,18.3283417 C37.3388276,16.886531 36.569746,15.554157 35.3211347,14.8331937 C34.0725233,14.1122304 32.5341128,14.1122304 31.2855015,14.8331937 C30.0368902,15.554157 29.2678085,16.886531 29.2680091,18.3283417 L29.2680091,18.3283417 Z" id="路径" fill="#A3D4FF"></path>
                                <path d="M1.02084648,16.3106873 C1.02064587,17.752498 1.78972753,19.084872 3.03833885,19.8058353 C4.28695018,20.5267986 5.82536068,20.5267986 7.073972,19.8058353 C8.32258333,19.084872 9.09166499,17.752498 9.09146438,16.3106873 C9.09166499,14.8688765 8.32258333,13.5365026 7.073972,12.8155393 C5.82536068,12.094576 4.28695018,12.094576 3.03833885,12.8155393 C1.78972753,13.5365026 1.02064587,14.8688765 1.02084648,16.3106873 L1.02084648,16.3106873 Z" id="路径" fill="#A3D4FF"></path>
                                <path d="M1.02084648,40.522541 C1.02064587,41.9643518 1.78972753,43.2967257 3.03833885,44.017689 C4.28695018,44.7386523 5.82536068,44.7386523 7.073972,44.017689 C8.32258333,43.2967257 9.09166499,41.9643518 9.09146438,40.522541 C9.09166499,39.0807303 8.32258333,37.7483563 7.073972,37.027393 C5.82536068,36.3064297 4.28695018,36.3064297 3.03833885,37.027393 C1.78972753,37.7483563 1.02064587,39.0807303 1.02084648,40.522541 L1.02084648,40.522541 Z" id="路径" fill="#A3D4FF"></path>
                                <g id="分组-8" transform="translate(0.012019, 11.266551)" fill="#2A5082">
                                    <path d="M17.150063,47.4148802 C14.3253468,47.4148802 12.1059269,45.1954602 12.1059269,42.370744 C12.1059269,39.5460277 14.3253468,37.3266078 17.150063,37.3266078 C19.9747793,37.3266078 22.1941992,39.5460277 22.1941992,42.370744 C22.1941992,45.1954602 19.9747793,47.4148802 17.150063,47.4148802 L17.150063,47.4148802 Z M17.150063,39.3442623 C15.4350567,39.3442623 14.1235813,40.6557377 14.1235813,42.370744 C14.1235813,44.0857503 15.4350567,45.3972257 17.150063,45.3972257 C18.8650694,45.3972257 20.1765448,44.0857503 20.1765448,42.370744 C20.1765448,40.6557377 18.8650694,39.3442623 17.150063,39.3442623 Z" id="形状"></path>
                                    <path d="M43.3795713,47.4148802 C40.554855,47.4148802 38.3354351,45.1954602 38.3354351,42.370744 C38.3354351,39.5460277 40.554855,37.3266078 43.3795713,37.3266078 C46.2042875,37.3266078 48.4237074,39.5460277 48.4237074,42.370744 C48.4237074,45.1954602 46.2042875,47.4148802 43.3795713,47.4148802 Z M43.3795713,39.3442623 C41.6645649,39.3442623 40.3530895,40.6557377 40.3530895,42.370744 C40.3530895,44.0857503 41.6645649,45.3972257 43.3795713,45.3972257 C45.0945776,45.3972257 46.406053,44.0857503 46.406053,42.370744 C46.406053,40.6557377 45.0945776,39.3442623 43.3795713,39.3442623 Z" id="形状"></path>
                                    <path d="M56.4943254,35.3089533 C53.6696091,35.3089533 51.4501892,33.0895334 51.4501891,30.2648171 C51.4501891,27.4401009 53.6696091,25.2206809 56.4943254,25.2206809 C59.3190417,25.2206809 61.5384616,27.4401009 61.5384616,30.2648171 C61.5384616,33.0895334 59.3190416,35.3089533 56.4943254,35.3089533 Z M56.4943254,27.2383354 C54.7793191,27.2383354 53.4678437,28.5498108 53.4678437,30.2648171 C53.4678437,31.9798234 54.7793191,33.2912988 56.4943254,33.2912988 C58.2093317,33.2912988 59.5208071,31.9798234 59.5208071,30.2648171 C59.5208071,28.5498108 58.2093317,27.2383354 56.4943254,27.2383354 Z" id="形状"></path>
                                    <path d="M28.2471627,34.3001261 C25.4224464,34.3001261 23.2030265,32.0807062 23.2030265,29.2559899 C23.2030265,26.4312737 25.4224464,24.2118538 28.2471627,24.2118537 C31.0718789,24.2118536 33.2912988,26.4312736 33.2912989,29.2559899 C33.291299,32.0807063 31.071879,34.3001261 28.2471627,34.3001261 Z M28.2471627,26.2295082 C26.5321563,26.2295082 25.2206809,27.5409836 25.2206809,29.2559899 C25.2206809,30.9709963 26.5321563,32.2824716 28.2471627,32.2824716 C29.962169,32.2824716 31.2736444,30.9709963 31.2736444,29.2559899 C31.2736444,27.5409836 29.962169,26.2295082 28.2471627,26.2295082 Z" id="形状"></path>
                                    <path d="M18.1588903,22.1941992 C15.3341741,22.1941992 13.1147541,19.9747793 13.1147541,17.150063 C13.1147541,14.3253468 15.3341741,12.1059269 18.1588903,12.1059269 C20.9836066,12.1059269 23.2030265,14.3253468 23.2030265,17.150063 C23.2030265,19.9747793 20.9836066,22.1941992 18.1588903,22.1941992 L18.1588903,22.1941992 Z M18.1588903,14.1235813 C16.443884,14.1235813 15.1324086,15.4350567 15.1324086,17.150063 C15.1324086,18.8650694 16.443884,20.1765448 18.1588903,20.1765448 C19.8738966,20.1765448 21.185372,18.8650694 21.185372,17.150063 C21.185372,15.4350567 19.8738966,14.1235813 18.1588903,14.1235813 Z" id="形状"></path>
                                    <path d="M33.2912989,12.1059269 C30.4665827,12.1059269 28.2471627,9.88650695 28.2471627,7.06179063 C28.2471626,4.2370743 30.4665826,2.01765445 33.2912989,2.01765445 C36.1160152,2.01765445 38.3354351,4.23707438 38.3354351,7.06179063 C38.3354351,9.88650688 36.1160152,12.1059268 33.2912989,12.1059269 L33.2912989,12.1059269 Z M33.2912989,4.03530891 C31.5762926,4.03530891 30.2648172,5.3467843 30.2648172,7.06179063 C30.2648172,8.77679695 31.5762926,10.0882723 33.2912989,10.0882723 C35.0063052,10.0882723 36.3177806,8.77679695 36.3177806,7.06179063 C36.3177806,5.3467843 35.0063052,4.03530891 33.2912989,4.03530891 Z" id="形状"></path>
                                    <path d="M5.04413617,10.0882723 C2.21941992,10.0882723 -2.32702746e-13,7.86885242 -2.32702746e-13,5.04413617 C-2.32702746e-13,2.21941992 2.21941992,3.8191672e-14 5.04413617,3.8191672e-14 C7.86885242,3.8191672e-14 10.0882723,2.21941992 10.0882724,5.04413617 C10.0882725,7.86885242 7.8688525,10.0882723 5.04413617,10.0882723 L5.04413617,10.0882723 Z M5.04413617,2.01765445 C3.32912984,2.01765445 2.01765445,3.32912984 2.01765445,5.04413617 C2.01765445,6.7591425 3.32912984,8.07061789 5.04413617,8.07061789 C6.7591425,8.07061789 8.07061789,6.7591425 8.07061789,5.04413617 C8.07061789,3.32912984 6.7591425,2.01765445 5.04413617,2.01765445 Z" id="形状"></path>
                                    <path d="M5.04413617,34.3001261 C2.21941992,34.3001261 -2.32702746e-13,32.0807062 -2.32702746e-13,29.2559899 C-2.32702746e-13,26.4312737 2.21941992,24.2118538 5.04413617,24.2118537 C7.86885242,24.2118536 10.0882723,26.4312736 10.0882724,29.2559899 C10.0882725,32.0807063 7.8688525,34.3001261 5.04413617,34.3001261 Z M5.04413617,26.2295082 C3.32912984,26.2295082 2.01765445,27.5409836 2.01765445,29.2559899 C2.01765445,30.9709963 3.32912984,32.2824716 5.04413617,32.2824716 C6.7591425,32.2824716 8.07061789,30.9709963 8.07061789,29.2559899 C8.07061789,27.5409836 6.7591425,26.2295082 5.04413617,26.2295082 Z" id="形状"></path>
                                    <path d="M44.3883985,23.2030265 C41.5636823,23.2030265 39.3442623,20.9836066 39.3442623,18.1588902 C39.3442623,15.3341739 41.5636823,13.1147541 44.3883985,13.1147541 C47.2131148,13.1147541 49.4325347,15.334174 49.4325347,18.1588902 C49.4325347,20.9836065 47.2131148,23.2030264 44.3883985,23.2030265 Z M44.3883985,15.1324085 C42.6733922,15.1324085 41.3619168,16.4438839 41.3619168,18.1588902 C41.3619168,19.8738966 42.6733922,21.185372 44.3883985,21.185372 C46.1034048,21.185372 47.4148802,19.8738966 47.4148802,18.1588902 C47.4148802,16.4438839 46.1034048,15.1324085 44.3883985,15.1324085 Z" id="形状"></path>
                                </g>
                            </g>
                        </g>
                    </g>
                </g>
            </g>
        </g>
    </g>
</svg>