<?xml version="1.0" encoding="UTF-8"?>
<svg width="100px" height="100px" viewBox="0 0 100 100" version="1.1" xmlns="http://www.w3.org/2000/svg" xmlns:xlink="http://www.w3.org/1999/xlink">
    <!-- Generator: Sketch 53.2 (72643) - https://sketchapp.com -->
    <title>电源</title>
    <desc>Created with Sketch.</desc>
    <g id="Page-1" stroke="none" stroke-width="1" fill="none" fill-rule="evenodd">
        <g id="驱动及控制系统-copy" transform="translate(-1630.000000, -1580.000000)">
            <g id="核心产品" transform="translate(-34.000000, 1000.000000)">
                <g id="分组-3" transform="translate(35.000000, 410.000000)">
                    <g id="楼宇智慧眼" transform="translate(1439.000000, 0.000000)">
                        <g id="dianyuan-icon" transform="translate(190.000000, 170.000000)">
                            <rect id="矩形" x="0" y="0" width="100" height="100"></rect>
                            <g id="dianyuan" transform="translate(15.000000, 12.000000)" fill="#FFFFFF" fill-rule="nonzero">
                                <path d="M23.891704,45 C22.4155797,45 21.0832928,44.03548 20.7441395,42.6144192 L18.0801713,31.4512091 C17.686915,29.803073 18.7785646,28.1649761 20.518542,27.7923815 C22.2580148,27.4195957 23.9877974,28.4538158 24.3812556,30.1020475 L27.0452239,41.265162 C27.4384802,42.913298 26.3468305,44.5514905 24.6068531,44.9240852 C24.3721774,44.974419 24.1323207,44.9998803 23.891704,45 Z M45.108164,45 C44.8721699,45 44.6328448,44.9754281 44.3930149,44.9240852 C42.6530375,44.5515862 41.561287,42.9133936 41.9546442,41.265162 L44.6186124,30.1020475 C45.0120706,28.4538158 46.7418533,27.4199781 48.481427,27.7923815 C50.2214044,28.1648805 51.3131549,29.8029774 50.9197977,31.4512091 L48.2558295,42.6144192 C47.9165752,44.0353844 46.5840864,45 45.108164,45 L45.108164,45 Z M34.7169517,29.4295223 C32.9330661,29.4295223 31.4869205,28.0597088 31.4869205,26.3699822 L31.4869205,14.0595401 C31.4869205,12.3698135 32.9330661,11 34.7169517,11 C36.5008374,11 37.946983,12.3698135 37.946983,14.0595401 L37.946983,26.3699822 C37.946983,28.0597088 36.5008374,29.4295223 34.7169517,29.4295223 L34.7169517,29.4295223 Z" id="形状"></path>
                                <path d="M69.7888378,38.5935882 L55.3558988,1.98727218 C54.8839205,0.790189015 53.7027261,8.90526962e-07 52.3852711,0 L17.6149275,0 C16.3157209,-1.83813239e-05 15.1470115,0.768734761 14.6625953,1.94198374 L0.229457398,36.8986587 C0.0132097981,37.4222986 -0.0518431698,37.9935079 0.04133223,38.5505255 L2.66553912,54.2468403 C2.91610753,55.7454232 4.24600929,56.8461838 5.80599648,56.8461838 L31.6541162,56.8461838 L31.6541162,72.9033546 C31.6541162,74.6135738 33.0786771,76 34.8359372,76 C36.5931973,76 38.0177582,74.6135738 38.0177582,72.9033546 L38.0177582,56.8462806 L64.1940032,56.8462806 C65.7317177,56.8462806 67.0494888,55.7760025 67.324418,54.3036444 L69.9486249,40.2569706 C70.0529756,39.6987348 69.9977009,39.1233255 69.7888378,38.5935882 Z M61.5385747,50.6529898 L8.51203583,50.6529898 L6.46473286,38.4074992 L19.7654408,6.193194 L50.1981669,6.193194 L63.5283066,40.0024651 L61.5385747,50.6529898 Z" id="形状"></path>
                            </g>
                        </g>
                    </g>
                </g>
            </g>
        </g>
    </g>
</svg>