<?xml version="1.0" encoding="UTF-8"?>
<svg width="100px" height="100px" viewBox="0 0 100 100" version="1.1" xmlns="http://www.w3.org/2000/svg" xmlns:xlink="http://www.w3.org/1999/xlink">
    <!-- Generator: Sketch 53.2 (72643) - https://sketchapp.com -->
    <title>系统</title>
    <desc>Created with Sketch.</desc>
    <g id="Page-1" stroke="none" stroke-width="1" fill="none" fill-rule="evenodd">
        <g id="电机系统集成" transform="translate(-270.000000, -1580.000000)" fill="#FFFFFF" fill-rule="nonzero">
            <g id="核心产品-copy" transform="translate(-34.000000, 1000.000000)">
                <g id="分组-3" transform="translate(34.000000, 410.000000)">
                    <g id="人行管理">
                        <g id="门" transform="translate(270.000000, 170.000000)">
                            <g id="xitong">
                                <g id="xitong-2">
                                    <path d="M87.1988796,13 L12.8011204,13 C11.2541043,13 10,14.2541043 10,15.8011204 L10,69.5826331 C10,71.1296492 11.2541043,72.3837535 12.8011204,72.3837535 L87.1988796,72.3837535 C88.7458957,72.3837535 90,71.1296492 90,69.5826331 L90,15.8011204 C90,14.2541043 88.7458957,13 87.1988796,13 Z M84.3977591,66.7815126 L15.6022409,66.7815126 L15.6022409,18.6022409 L84.3977591,18.6022409 L84.3977591,66.7815126 Z M35.9943978,83.6442577 L64.0056022,83.6442577 C65.5526183,83.6442577 66.8067227,82.3901534 66.8067227,80.8431373 C66.8067227,79.2961211 65.5526183,78.0420168 64.0056022,78.0420168 L35.9943978,78.0420168 C34.4473817,78.0420168 33.1932773,79.2961211 33.1932773,80.8431373 C33.1932773,82.3901534 34.4473817,83.6442577 35.9943978,83.6442577 Z" id="形状"></path>
                                </g>
                            </g>
                        </g>
                    </g>
                </g>
            </g>
        </g>
    </g>
</svg>