<?xml version="1.0" encoding="UTF-8"?>
<svg width="100px" height="100px" viewBox="0 0 100 100" version="1.1" xmlns="http://www.w3.org/2000/svg" xmlns:xlink="http://www.w3.org/1999/xlink">
    <!-- Generator: Sketch 53.2 (72643) - https://sketchapp.com -->
    <title>飞机</title>
    <desc>Created with Sketch.</desc>
    <g id="Page-1" stroke="none" stroke-width="1" fill="none" fill-rule="evenodd">
        <g id="驱动及控制系统-copy" transform="translate(-1151.000000, -1580.000000)" fill="#FFFFFF" fill-rule="nonzero">
            <g id="核心产品" transform="translate(-34.000000, 1000.000000)">
                <g id="分组-3" transform="translate(35.000000, 410.000000)">
                    <g id="飞机" transform="translate(960.000000, 0.000000)">
                        <g id="feiji" transform="translate(190.000000, 170.000000)">
                            <path d="M87.1813672,25.1071361 C88.5206712,21.0785642 88.2528104,17.5830281 86.109924,15.1642779 L85.8420633,14.8964207 C83.4313161,12.7455276 79.9518045,12.4776704 75.9338926,13.8223134 C72.4517024,14.8964207 69.2373729,17.0473138 66.2935828,19.7339212 L59.3292023,26.7223148 L27.7323435,19.1955283 C26.3930395,18.9276711 24.7858748,19.1955283 23.7144316,20.2723141 L17.2857726,26.7223148 C16.4821903,27.5258863 15.9464687,28.8732079 16.2143295,30.4857081 C16.4821903,31.8276725 17.2857726,32.9044584 18.3572158,33.4401727 L40.5869828,45.5366026 L31.2118551,54.9410679 L23.17871,52.7928534 C22.6429884,52.5249962 22.1072669,52.5249962 21.8394061,52.5249962 C20.7679629,52.5249962 19.6965198,53.0607105 18.8929374,53.8669606 L14.339304,58.7044611 C13.2678608,59.5107112 13,60.8553542 13,61.9294615 C13,63.2741045 13.8035824,64.3482117 14.6071647,64.8866047 L26.9260825,74.0232128 L36.0333493,86.3874998 C36.8369317,87.4616071 37.9083749,88 38.979818,88 L39.2450002,88 C40.3164434,88 41.3878865,87.4642857 42.1914689,86.655357 L47.0129631,81.8178565 C48.0844063,80.7437492 48.6201279,79.131249 48.0844063,77.786606 L45.94152,69.7241052 L55.313969,60.3169613 L67.365026,82.6241066 C68.1686083,83.9687496 69.2400515,84.5071425 70.0436339,84.7749997 C70.5793554,85.0428568 70.8472162,85.0428568 71.115077,85.0428568 C72.1865202,85.0428568 72.9901026,84.7749997 73.7936849,84.2392853 L80.2196653,79.3991062 C81.5589692,78.324999 82.0946908,76.7124988 81.82683,75.0999986 L74.3267279,41.7732093 L81.2911084,34.7848157 C83.9697163,32.0982083 86.1126027,28.8732079 87.1840458,25.1098147 L87.1813672,25.1071361 Z M68.7756262,40.7862025 L76.8902319,76.2799261 L72.0209352,79.7732979 L56.8743822,52.3463296 L40.1011749,69.0185129 L43.0744859,79.5039616 L39.8291769,83 L31.1732419,71.4372062 L19,62.2957724 L22.5173069,58.8024006 L33.066561,61.7570998 L49.8397684,45.0875831 L21.973311,30.0287509 L26.8452744,25.1886977 L61.1996831,33.255453 L70.399614,24.3833555 C72.5595978,22.2313318 75.2662441,20.6179808 77.9728905,19.5433023 C80.9488681,18.4686238 82.02886,19.273966 82.5701893,19.5433023 C82.8421872,20.0793082 83.3835165,21.1566533 82.5701893,24.1140192 C81.6739616,27.0251579 79.9884853,29.6309561 77.7008925,31.642102 L68.7756262,40.7835358 L68.7756262,40.7862025 Z" id="形状"></path>
                        </g>
                    </g>
                </g>
            </g>
        </g>
    </g>
</svg>