<?xml version="1.0" encoding="UTF-8"?>
<svg width="100px" height="100px" viewBox="0 0 100 100" version="1.1" xmlns="http://www.w3.org/2000/svg" xmlns:xlink="http://www.w3.org/1999/xlink">
    <!-- Generator: Sketch 53.2 (72643) - https://sketchapp.com -->
    <title>运动方案</title>
    <desc>Created with Sketch.</desc>
    <g id="Page-1" stroke="none" stroke-width="1" fill="none" fill-rule="evenodd">
        <g id="电机系统集成" transform="translate(-1550.000000, -1580.000000)" fill="#FFFFFF" fill-rule="nonzero">
            <g id="核心产品-copy" transform="translate(-34.000000, 1000.000000)">
                <g id="分组-3" transform="translate(34.000000, 410.000000)">
                    <g id="楼宇智慧眼" transform="translate(1280.000000, 0.000000)">
                        <g id="dianyuan-icon" transform="translate(270.000000, 170.000000)">
                            <g id="dianyuan">
                                <g id="-fanganguanli" transform="translate(8.000000, 10.000000)">
                                    <path d="M43.3792949,8.17324748e-05 C43.798352,0.11454647 44.2407543,0.178483288 44.6318468,0.354431949 C45.4537102,0.724071413 46.2534658,1.14309421 47.0528089,1.5600731 C47.8175056,1.95930986 48.5679314,2.38560944 49.328586,2.79277692 C51.790794,4.11132939 54.2550643,5.42603901 56.7178497,6.74336508 C59.1093017,8.02240941 61.5002097,9.30245274 63.890573,10.5834947 C66.2330032,11.8390915 68.5741961,13.0974682 70.9167089,14.3536374 C73.3187805,15.6417749 75.7213471,16.929013 78.1237487,18.2162512 C79.4197735,18.9105617 80.7298219,19.5802625 82.0072862,20.3062144 C82.8753448,20.7994758 83.3297083,21.637685 83.6228008,22.5527491 C84.1179152,24.098514 84.1698023,25.6594865 83.5117672,27.1638807 C83.1931023,27.892449 82.6541849,28.4730307 81.8548418,28.800727 C80.7571266,29.2506553 79.6934805,29.7819354 78.6118512,30.2709453 C76.498995,31.2265626 74.3824266,32.1738404 72.2699829,33.1306024 C71.1641011,33.6314676 70.0662209,34.1497477 68.9606691,34.6514305 C66.7259728,35.6653431 64.4885543,36.6736142 62.2521257,37.6839293 C59.8068285,38.7883508 57.3602939,39.8899925 54.9164816,40.9974392 C53.44211,41.6655864 51.9777199,42.3550732 50.4981513,43.0119375 C48.5157967,43.8918446 46.5554674,44.8339714 44.5254326,45.5907471 C42.7474921,46.2533346 40.926491,46.0822915 39.1841044,45.2874972 C37.1350141,44.3528106 35.0832017,43.424256 33.0322141,42.4937391 C31.1779689,41.6526684 29.3238061,40.8119246 27.469066,39.9719167 C25.1720061,38.9317589 22.8742863,37.8930728 20.5773089,36.8529151 C18.7226512,36.0129071 16.8689009,35.1707734 15.0143258,34.3308473 C12.7171009,33.2906078 10.4193811,32.2520853 8.12215624,31.2120911 C6.3291198,30.4003723 4.5350109,29.5909428 2.74436665,28.7739914 C1.54139227,28.2251328 0.99958775,27.2414716 1.00000024,25.9740195 C1.00049518,25.0419491 1.00593962,24.0924639 1.17702707,23.181733 C1.41311793,21.9240922 2.09722035,20.8684817 3.23321161,20.2133344 C4.63474316,19.4050496 6.08255247,18.6755819 7.51147128,17.9141459 C9.76241841,16.7146369 12.0146028,15.5174988 14.2655499,14.3180715 C15.7423217,13.530841 17.2185085,12.7425328 18.6941091,11.9531475 C21.0738255,10.6807081 23.4507373,9.40344464 25.8326809,8.1355838 C28.2152846,6.86715059 30.6034151,5.609101 32.9876686,4.34385643 C34.3820234,3.60375993 35.7703563,2.85278924 37.1678457,2.1180071 C38.1103942,1.6223746 39.0422189,1.09763538 40.0194964,0.679675439 C40.6786039,0.397846798 41.4092317,0.280683968 42.1067802,0.0861755877 C42.1505832,0.0739115296 42.1853122,0.0295155556 42.2243307,0 L43.3792949,8.17324731e-05 L43.3792949,8.17324748e-05 Z M6.91579968,24.6090271 C8.34587331,25.2230488 9.6911456,25.8006871 11.0361705,26.3784889 C12.2615001,26.9046998 13.4854273,27.4337723 14.7123242,27.9563858 C16.198822,28.5894577 17.6889495,29.2140266 19.1752823,29.8474256 C20.6375277,30.4705228 22.0951535,31.1040854 23.5578938,31.7259561 C25.2181188,32.431795 26.8832934,33.1264326 28.5435185,33.832108 C29.832779,34.3799854 31.1160177,34.9419258 32.4052782,35.4893126 C34.0412507,36.183705 35.6831627,36.8639528 37.3179803,37.5610432 C38.8048082,38.1951781 40.2833868,38.8486083 41.771287,39.480454 C42.0050681,39.5797113 42.2489957,39.7186225 42.5321892,39.563768 C42.7676201,39.4349951 43.0232614,39.3427692 43.2705711,39.2356628 C44.7537693,38.5931884 46.2355651,37.9468713 47.721238,37.3098748 C49.4537257,36.5668349 51.1899254,35.832298 52.9239805,35.0935098 C54.3242747,34.4970665 55.7238264,33.8994786 57.1241206,33.3031171 C58.8583406,32.5643288 60.592973,31.8265215 62.327193,31.0877333 C63.7274872,30.49129 65.1270389,29.8937021 66.5273331,29.2972589 C68.2615531,28.5585523 69.9951957,27.8182105 71.7309005,27.0828561 C73.0449909,26.5259849 74.3632061,25.9790886 75.6766367,25.4211546 C76.2756903,25.1667975 76.8676497,24.8964971 77.5212304,24.6076371 C77.3689509,24.5050276 77.2769729,24.4306255 77.1743534,24.3759277 C76.4363014,23.9829865 75.6909902,23.6030452 74.9570628,23.202582 C72.8380197,22.0463243 70.7259884,20.8778842 68.6062028,19.7234252 C67.315375,19.0203662 66.0112659,18.3411812 64.7199431,17.6390217 C62.5518175,16.460198 60.3902913,15.2696009 58.2237331,14.0878338 C56.2108182,12.9903613 54.1964827,11.8954503 52.1807316,10.8031036 C50.1417878,9.69761915 48.0999568,8.59744915 46.061178,7.49163768 C45.1838803,7.01595477 44.2924766,6.56210197 43.4412461,6.04365832 C42.3227431,5.36242938 42.3371791,5.33953641 41.2078697,5.96222481 C41.1487233,5.99468374 41.0854522,6.01945722 41.0259759,6.05150732 C39.7069358,6.75996247 38.3850911,7.46359381 37.0697633,8.17899865 C34.9136815,9.35144495 32.7625492,10.5326397 30.6081997,11.7080294 C28.655203,12.7740135 26.7010318,13.8378824 24.7456897,14.8996343 C23.7498516,15.4400715 22.7466718,15.9672636 21.7515761,16.5091726 C19.5723967,17.6960087 17.3986617,18.8924109 15.2184099,20.0771214 C13.1331059,21.2099956 11.0405426,22.3303605 8.95441356,23.46209 C8.29373873,23.8203647 7.64362274,24.1985073 6.91579968,24.6090271 L6.91579968,24.6090271 Z" id="形状"></path>
                                    <path d="M83.9998352,39.5777767 L83.8244985,40.7182461 C83.6132208,42.0934351 83.3179431,43.4315936 82.5199019,44.616981 C82.0109559,45.3729489 81.2239608,45.6660369 80.4734014,46.0286191 C79.7568047,46.375011 79.0184455,46.6754885 78.2943474,47.0069353 C75.7763081,48.1599462 73.2593296,49.3153058 70.7434151,50.4730126 C69.6875211,50.958725 68.6357488,51.4529893 67.5805143,51.9397811 C65.3599639,52.9639659 63.1388684,53.9869512 60.9172287,55.0087365 C58.4133033,56.1602485 55.9076467,57.3081905 53.4042983,58.4611971 C51.9805849,59.1169504 50.5682473,59.7986915 49.135631,60.4346011 C47.483741,61.1674042 45.8315211,61.9041096 44.1497076,62.5625198 C42.3697979,63.2593719 40.5925261,63.0887498 38.8692483,62.2986576 C37.2110108,61.5384553 35.560687,60.7605681 33.9038509,59.9972108 C31.6583553,58.9627678 29.4088205,57.9372089 27.1629951,56.9035962 C25.2605063,56.0282345 23.3619745,55.1441548 21.4595682,54.2686269 C18.8577115,53.0710344 16.2532994,51.8795029 13.6511129,50.6824085 C12.0678901,49.954172 10.4887066,49.2169684 8.90474189,48.4904755 C6.80515408,47.5275194 4.70086748,46.5751909 2.60226889,45.6103253 C1.61891657,45.1584051 1.1230775,44.287859 0.754021583,43.3302997 C0.375980343,42.3494927 0.140549583,41.3329007 0.0854838316,40.2778668 C0.0835054254,40.2368511 0.0296761774,40.1985753 0,40.1589711 L0,38 C0.704066742,38.3724626 1.40599018,38.7492426 2.11269483,39.1160592 C3.36123657,39.764257 4.6042552,40.4232484 5.8651619,41.0457907 C6.97974877,41.5961818 8.11807652,42.0980846 9.24173111,42.6302926 C11.7839058,43.8341953 14.3233601,45.0440759 16.8642159,46.2507184 C18.1711208,46.871517 19.4782729,47.4908212 20.785425,48.1103744 C23.2168911,49.2630489 25.6487694,50.4148931 28.0798234,51.5684809 C29.4481414,52.217592 30.8141512,52.8714357 32.1826339,53.5199656 C34.6020647,54.666496 37.0225672,55.8107017 39.44274,56.9552395 C40.1758234,57.3017974 40.9070932,57.6523406 41.6459471,57.9859462 C41.7625084,58.0386688 41.9385045,58.0618335 42.047317,58.0116017 C43.4101943,57.3836627 44.7671364,56.7428544 46.1227596,56.0992232 C48.6271796,54.9100995 51.1294564,53.7165753 53.6330521,52.5257911 C54.9884429,51.8814739 56.3442587,51.2380639 57.7004986,50.5955616 C60.083164,49.4660518 62.4664887,48.3382026 64.8487419,47.2079456 C66.2291776,46.5529395 67.6070579,45.8924536 68.9879883,45.2381117 C71.3951364,44.0976423 73.8147321,42.9829115 76.2083612,41.8140466 C78.3986261,40.7443998 80.5589677,39.6127314 82.7386811,38.5206672 C83.14442,38.3174152 83.5787635,38.1720336 84,38 C83.9998351,38.526064 83.9998351,39.0519618 83.9998352,39.5777767 L83.9998352,39.5777767 Z" id="路径"></path>
                                    <path d="M0.000247660478,55.0228455 C1.7303247,55.9498247 3.43588336,56.9271302 5.19650525,57.7918638 C7.69788115,59.0203865 10.2404513,60.1644803 12.7640341,61.3475605 C14.0749863,61.9622357 15.3829664,62.5832017 16.69235,63.201105 C19.1278481,64.3507447 21.5635113,65.500136 23.9989268,66.6499412 C25.3572647,67.2912695 26.7151899,67.93326 28.0736104,68.5744226 C30.5092736,69.7240623 32.9453496,70.8725432 35.3806825,72.0225967 C36.702284,72.6467909 38.021409,73.2760342 39.3443313,73.897414 C40.1277655,74.2655073 40.9252339,74.6052093 41.6988443,74.9931682 C42.0635663,75.1763457 42.3074299,74.9302604 42.566153,74.8130534 C43.7748211,74.266004 44.9654925,73.6799684 46.1653275,73.1126395 C48.6,71.9612616 51.0364887,70.8136085 53.4718217,69.6633066 C54.8545955,69.0099762 56.2356357,68.3531694 57.6184921,67.7005012 C60.0298019,66.5628636 62.4424327,65.4282887 64.8534122,64.2904857 C66.2242158,63.6435288 67.5922124,62.9908606 68.9628509,62.3439866 C71.3861311,61.2002238 73.8140342,60.0658144 76.2335168,58.9141882 C77.8481838,58.1458028 79.4592185,57.3694711 81.0577876,56.5677281 C81.9279858,56.131264 82.7677215,55.6337959 83.6223996,55.1658779 C83.7132087,55.1162139 83.8123556,55.0817801 84,55 C83.9230599,55.8579462 83.8949092,56.6493426 83.7716566,57.4258398 C83.626032,58.3446245 83.4435058,59.2626642 83.1944414,60.1581896 C82.9443863,61.0566948 82.5096588,61.9003212 81.7002201,62.4126057 C81.0520088,62.823079 80.322317,63.1058329 79.6223445,63.4316289 C78.7768299,63.8248026 77.9233902,64.200511 77.0755641,64.5887182 C74.4448267,65.7936505 71.8140891,66.9980034 69.1857458,68.2081504 C68.0308201,68.7398867 66.8840672,69.2894193 65.7294716,69.8219005 C63.3842873,70.9032521 61.036131,71.9787268 58.6895432,73.0566847 C56.0723446,74.2586372 53.4543203,75.4588514 50.8386902,76.6642803 C49.303027,77.3719101 47.7903137,78.1331769 46.2316181,78.7843552 C45.1419923,79.2396088 44.0141442,79.6572006 42.8628509,79.8951741 C41.5869841,80.1590557 40.3055862,79.903617 39.1071547,79.3654244 C37.7379197,78.7505836 36.3798294,78.1114075 35.0139792,77.4887861 C32.6526143,76.4124009 30.2876996,75.3434652 27.92683,74.2657557 C26.5859935,73.6536464 25.2515961,73.0275485 23.9118327,72.4132043 C21.6503578,71.3764676 19.3870667,70.3440351 17.1248487,69.3096987 C14.6413044,68.1741306 12.1570171,67.0400523 9.67479367,65.9019181 C8.3350303,65.2875739 6.99939464,64.6642075 5.66037425,64.048208 C4.66542654,63.5905878 3.66910944,63.1359666 2.67143646,62.6843508 C1.76441941,62.273712 1.29427628,61.4815706 0.928233417,60.6243693 C0.452789642,59.5143691 0.167954892,58.3317543 0.0857733044,57.1265313 C0.082883904,57.0856412 0.0296368166,57.0479794 0,57.0088275 C0.000247660478,56.3472198 0.000247660478,55.6850326 0.000247660478,55.0228455 L0.000247660478,55.0228455 Z" id="路径"></path>
                                </g>
                            </g>
                        </g>
                    </g>
                </g>
            </g>
        </g>
    </g>
</svg>