<?xml version="1.0" encoding="UTF-8"?>
<svg width="80px" height="80px" viewBox="0 0 80 80" version="1.1" xmlns="http://www.w3.org/2000/svg" xmlns:xlink="http://www.w3.org/1999/xlink">
    <!-- Generator: Sketch 53.2 (72643) - https://sketchapp.com -->
    <title>icon_01</title>
    <desc>Created with Sketch.</desc>
    <g id="Page-1" stroke="none" stroke-width="1" fill="none" fill-rule="evenodd">
        <g id="机器视觉-copy" transform="translate(-520.000000, -1207.000000)">
            <g id="分组-7" transform="translate(360.000000, 1080.000000)">
                <g id="分组-4" transform="translate(0.000000, 110.000000)">
                    <g id="分组-2" transform="translate(160.000000, 17.000000)">
                        <rect id="矩形" x="0" y="0" width="80" height="80"></rect>
                        <g id="shijiao" transform="translate(4.000000, 5.600000)" fill-rule="nonzero">
                            <path d="M35.6643372,67.0682881 C33.4104441,67.0682881 20.4505585,63.3493644 18.1966654,60.3066087 L13.2381005,52.7560667 L15.1539097,51.5164254 L20.1124745,58.9542729 C21.5775051,60.9827767 33.4104441,64.7017004 35.7770318,64.7017004 C37.0166731,64.7017004 38.030925,64.1382271 38.7070929,63.3493644 C39.3832608,62.4478071 39.4959555,61.3208606 39.1578716,60.0812194 L38.9324822,59.85583 C38.4817036,58.5034942 38.2563143,57.7146315 38.4817036,56.925769 L38.5943983,56.3622957 L39.1578716,56.1369064 C40.0594288,55.9115171 41.1863754,54.7845706 41.2990701,54.3337919 L43.5529632,54.3337919 C43.5529632,55.6861277 42.0879326,57.1511583 40.7355968,57.9400209 C40.8482914,58.2781048 40.9609861,58.7288834 41.0736807,59.1796621 L41.1863754,59.5177461 C41.7498487,61.4335552 41.5244593,63.3493644 40.3975128,64.814395 C39.3832609,66.1667309 37.5801464,67.0682881 35.6643372,67.0682881 Z" id="路径" fill="#2A5082"></path>
                            <polygon id="路径" fill="#2A5082" points="20.4426699 68.4927486 21.9865867 61.7930512 24.1830056 62.3001772 22.6390888 68.9987476"></polygon>
                            <path d="M40.6229021,0.0149672591 C35.4389479,0.0149672591 30.5930776,1.59269246 26.53607,4.4100589 C27.5503219,4.74814286 28.4518791,5.08622683 29.2407418,5.4243108 C39.6086502,9.70670773 42.9894899,20.3000055 42.8767952,25.9347383 L42.8767952,34.9503109 C44.6799097,37.4295933 47.8353601,41.4866009 47.8353601,43.0643262 C47.8353601,45.430914 45.0179937,45.6563033 42.9894899,45.8816926 C43.3275739,47.4594178 44.2291312,48.4736697 44.6799097,49.2625323 C56.5128487,47.3467231 65.5284213,37.0915094 65.5284213,24.8077918 C65.4157266,11.0590437 54.3716502,0.0149672591 40.6229021,0.0149672591 L40.6229021,0.0149672591 Z" id="路径" fill="#E9EAEB"></path>
                            <polygon id="路径" fill="#BCC0C4" points="46.848155 22.6857514 67.1399549 10.2882122 68.3153601 12.21191 48.0246871 24.6094492"></polygon>
                            <polygon id="路径" fill="#2A5082" points="69.9235129 9.03053979 72.177406 9.03053979 72.177406 49.6006163 69.9235129 49.6006163"></polygon>
                            <polygon id="路径" fill="#BCC0C4" points="47.8240907 34.6990018 49.1426181 32.8699675 68.2578859 46.632239 66.9404853 48.4612733"></polygon>
                            <path d="M34.6500853,52.8687614 L34.6500853,50.6148682 C37.6928411,50.6148682 41.7498487,50.0513949 43.4402685,49.4879216 L43.4402685,49.375227 C42.8767952,48.6990591 42.2006273,47.5721125 41.8625433,45.9943873 L41.6371541,44.8674407 L43.3275739,44.6420514 C45.6941616,44.3039674 46.7084136,43.9658835 46.7084135,42.9516315 C46.7084135,41.8246849 43.7783525,37.8803719 42.4260166,36.0772575 L41.7498487,35.1757002 L41.7498487,25.8220437 C41.8625433,20.1873108 38.4817036,10.3828757 28.7899631,6.32586806 C23.8313982,4.29736427 19.2109173,3.28311229 14.703131,3.28311229 L14.703131,1.02921916 C19.5490012,1.02921916 24.3948715,2.04347106 29.6915204,4.29736419 C40.3975128,8.69245583 44.1164364,19.6238375 44.0037418,25.8220437 L44.0037418,34.4995323 L44.2291312,34.7249216 C46.9338029,38.3311506 48.9623068,41.2612117 48.9623068,42.9516315 C48.9623068,45.6563032 46.3703297,46.4451659 44.4545204,46.6705552 C44.6799097,47.1213338 45.0179937,47.5721125 45.243383,48.0228911 C45.6941616,48.699059 46.3703297,49.6006163 45.8068564,50.5021735 C44.7926045,52.4179827 35.7770319,52.8687613 34.6500853,52.8687614 Z" id="路径" fill="#2A5082"></path>
                            <path d="M46.2576349,25.9347383 L9.0683982,25.9347383 L9.0683982,31.5694712 L28.2264899,31.5694712 C29.8042151,33.8233643 33.1850548,37.2042041 38.3690089,37.204204 C42.6514059,37.204204 46.2576349,31.3440819 46.2576349,29.3155781 L46.2576349,25.9347383 Z" id="路径" fill="#A3D4FF"></path>
                            <path d="M38.3690089,38.3311506 C32.9596654,38.3311506 29.466131,34.9503109 27.6630166,32.6964177 L7.9414516,32.6964177 L7.9414516,30.4425246 L28.7899631,30.4425246 L29.1280471,30.8933033 C30.4803829,32.8091124 33.5231387,36.0772575 38.3690089,36.0772575 C41.9752379,36.0772575 45.1306883,30.8933033 45.1306884,29.3155781 L45.1306884,28.4140208 L45.1306884,27.0616849 L9.85726077,27.0616849 C4.56061186,27.0616849 2.30671873,29.2028834 2.30671873,34.2741429 L2.30671873,37.204204 L0.052825594,37.204204 L0.052825594,34.2741429 C0.052825594,27.9632421 3.32097063,24.8077917 9.85726077,24.8077918 L47.3845816,24.8077918 L47.3845816,29.3155781 C47.3845816,31.7948605 43.4402686,38.3311506 38.3690089,38.3311506 Z" id="路径" fill="#2A5082"></path>
                        </g>
                    </g>
                </g>
            </g>
        </g>
    </g>
</svg>