<?xml version="1.0" encoding="UTF-8"?>
<svg width="80px" height="80px" viewBox="0 0 80 80" version="1.1" xmlns="http://www.w3.org/2000/svg" xmlns:xlink="http://www.w3.org/1999/xlink">
    <!-- Generator: Sketch 53.2 (72643) - https://sketchapp.com -->
    <title>icon_02</title>
    <desc>Created with Sketch.</desc>
    <g id="Page-1" stroke="none" stroke-width="1" fill="none" fill-rule="evenodd">
        <g id="机器视觉-copy" transform="translate(-920.000000, -1207.000000)">
            <g id="分组-7" transform="translate(360.000000, 1080.000000)">
                <g id="分组-4" transform="translate(0.000000, 110.000000)">
                    <g id="分组-6" transform="translate(560.000000, 17.000000)">
                        <rect id="矩形" x="0" y="0" width="80" height="80"></rect>
                        <g id="chuliqi" transform="translate(8.800000, 8.800000)" fill-rule="nonzero">
                            <path d="M0.054480625,19.1717568 C0.054480625,29.7577949 8.63616008,38.3394743 19.2221982,38.3394743 C29.8082362,38.3394743 38.3899157,29.7577949 38.3899157,19.1717568 C38.3899157,8.58571871 29.8082362,0.00403925781 19.2221982,0.00403925781 C8.63616008,0.00403925781 0.054480625,8.58571871 0.054480625,19.1717568 Z" id="路径" fill="#E9EAEB"></path>
                            <path d="M48.478188,55.4895373 L18.2133709,55.4895373 L11.1515802,48.4277467 L11.1515802,18.1629295 L18.2133709,11.1011389 L48.478188,11.1011389 L55.5399788,18.1629295 L55.5399788,48.4277467 C52.8161452,51.252463 51.2020216,52.7657038 48.478188,55.4895373 L48.478188,55.4895373 Z" id="路径" fill="#FFFFFF"></path>
                            <path d="M48.881719,56.4983646 L17.80984,56.4983646 L10.142753,48.8312776 L10.142753,17.7593987 L17.80984,10.0923116 L48.881719,10.0923116 L56.5488059,17.7593987 L56.5488059,48.8312776 L48.881719,56.4983646 Z M18.6169018,54.4807102 L48.0746572,54.4807102 L54.5311515,48.0242158 L54.5311515,18.6673431 L48.0746572,12.2108488 L18.6169018,12.2108488 L12.1604075,18.6673431 L12.1604075,48.1250985 L18.6169018,54.4807102 L18.6169018,54.4807102 Z" id="形状" fill="#979797"></path>
                            <path d="M40.4075702,42.3747833 L26.2839888,42.3747833 L24.2663343,40.3571288 L24.2663343,26.2335474 L26.2839888,24.215893 L40.4075702,24.215893 L42.4252246,26.2335474 L42.4252246,40.3571288 C41.6181628,41.1641905 41.214632,41.6686041 40.4075702,42.3747833 Z" id="路径" fill="#E9EAEB"></path>
                            <path d="M40.811101,43.3836105 L25.8804579,43.3836105 L23.2575071,40.7606597 L23.2575071,25.8300166 L25.8804579,23.2070657 L40.811101,23.2070657 L43.4340519,25.8300166 L43.4340519,40.7606597 L40.811101,43.3836105 Z M26.6875197,41.365956 L40.0040392,41.365956 L41.4163974,39.9535979 L41.4163974,26.7379611 L40.0040392,25.325603 L26.6875197,25.325603 L25.2751616,26.7379611 L25.2751616,40.0544806 L26.6875197,41.365956 L26.6875197,41.365956 Z M20.2310254,4.0393482 L22.2486798,4.0393482 L22.2486798,8.07465719 L20.2310254,8.07465719 L20.2310254,4.0393482 Z M26.2839888,4.0393482 L28.3016433,4.0393482 L28.3016433,8.07465719 L26.2839888,8.07465719 L26.2839888,4.0393482 Z M32.3369523,4.0393482 L34.3546067,4.0393482 L34.3546067,8.07465719 L32.3369523,8.07465719 L32.3369523,4.0393482 Z M38.3899157,4.0393482 L40.4075702,4.0393482 L40.4075702,8.07465719 L38.3899157,8.07465719 L38.3899157,4.0393482 Z M44.4428791,4.0393482 L46.4605336,4.0393482 L46.4605336,8.07465719 L44.4428791,8.07465719 L44.4428791,4.0393482 Z M20.2310254,58.5160191 L22.2486798,58.5160191 L22.2486798,62.551328 L20.2310254,62.551328 L20.2310254,58.5160191 Z M26.2839888,58.5160191 L28.3016433,58.5160191 L28.3016433,62.551328 L26.2839888,62.551328 L26.2839888,58.5160191 Z M32.3369523,58.5160191 L34.3546067,58.5160191 L34.3546067,62.551328 L32.3369523,62.551328 L32.3369523,58.5160191 Z M38.3899157,58.5160191 L40.4075702,58.5160191 L40.4075702,62.551328 L38.3899157,62.551328 L38.3899157,58.5160191 Z M44.4428791,58.5160191 L46.4605336,58.5160191 L46.4605336,62.551328 L44.4428791,62.551328 L44.4428791,58.5160191 Z M58.5664605,20.180584 L62.6017694,20.180584 L62.6017694,22.1982385 L58.5664605,22.1982385 L58.5664605,20.180584 Z M58.5664605,26.2335474 L62.6017694,26.2335474 L62.6017694,28.251202 L58.5664605,28.251202 L58.5664605,26.2335474 Z M58.5664605,32.2865109 L62.6017694,32.2865109 L62.6017694,34.3041654 L58.5664605,34.3041654 L58.5664605,32.2865109 Z M58.5664605,38.3394743 L62.6017694,38.3394743 L62.6017694,40.3571288 L58.5664605,40.3571288 L58.5664605,38.3394743 Z M58.5664605,44.3924377 L62.6017694,44.3924377 L62.6017694,46.4100922 L58.5664605,46.4100922 L58.5664605,44.3924377 Z M4.08978953,20.180584 L8.12509852,20.180584 L8.12509852,22.1982385 L4.08978953,22.1982385 L4.08978953,20.180584 Z M4.08978953,26.2335474 L8.12509852,26.2335474 L8.12509852,28.251202 L4.08978953,28.251202 L4.08978953,26.2335474 Z M4.08978953,32.2865109 L8.12509852,32.2865109 L8.12509852,34.3041654 L4.08978953,34.3041654 L4.08978953,32.2865109 Z M4.08978953,38.3394743 L8.12509852,38.3394743 L8.12509852,40.3571288 L4.08978953,40.3571288 L4.08978953,38.3394743 Z M4.08978953,44.3924377 L8.12509852,44.3924377 L8.12509852,46.4100922 L4.08978953,46.4100922 L4.08978953,44.3924377 Z M17.2045437,26.2335474 L19.2221981,26.2335474 L19.2221981,29.2600291 L17.2045437,29.2600291 L17.2045437,26.2335474 Z M17.2045437,31.2776837 L19.2221981,31.2776837 L19.2221981,34.3041654 L17.2045437,34.3041654 L17.2045437,31.2776837 Z M17.2045437,36.3218198 L19.2221981,36.3218198 L19.2221981,39.3483016 L17.2045437,39.3483016 L17.2045437,36.3218198 Z M47.4693608,26.2335474 L49.4870153,26.2335474 L49.4870153,29.2600291 L47.4693608,29.2600291 L47.4693608,26.2335474 Z M47.4693608,31.2776837 L49.4870153,31.2776837 L49.4870153,34.3041654 L47.4693608,34.3041654 L47.4693608,31.2776837 Z M47.4693608,36.3218198 L49.4870153,36.3218198 L49.4870153,39.3483016 L47.4693608,39.3483016 L47.4693608,36.3218198 Z" id="形状" fill="#979797"></path>
                        </g>
                    </g>
                </g>
            </g>
        </g>
    </g>
</svg>