<?xml version="1.0" encoding="UTF-8"?>
<svg width="100px" height="100px" viewBox="0 0 100 100" version="1.1" xmlns="http://www.w3.org/2000/svg" xmlns:xlink="http://www.w3.org/1999/xlink">
    <!-- Generator: Sketch 53.2 (72643) - https://sketchapp.com -->
    <title>地铁站台管理</title>
    <desc>Created with Sketch.</desc>
    <g id="Page-1" stroke="none" stroke-width="1" fill="none" fill-rule="evenodd">
        <g id="机器视觉-copy" transform="translate(-1149.000000, -1580.000000)">
            <g id="分组-3" transform="translate(0.000000, 1410.000000)">
                <g id="地铁站台管理" transform="translate(959.000000, 0.000000)">
                    <g id="ditie" transform="translate(190.000000, 169.000000)">
                        <rect id="矩形" x="0" y="0" width="100" height="100"></rect>
                        <path d="M73.8095941,11.8333333 C78.296177,11.8333333 81.933271,15.4613707 81.933271,19.9367816 L81.933271,70.3582376 C81.9333217,74.4271665 78.9084566,77.8652002 74.8638669,78.3932567 L86.6666667,90.1666667 L79.0069421,90.1666667 L67.2709369,78.4616859 L32.7254525,78.4616859 L20.9912527,90.1666667 L13.3333333,90.1666667 L25.231812,78.2960154 C21.4574458,77.5180632 18.7498577,74.202739 18.7491179,70.3582376 L18.7491179,19.9367816 C18.7491179,15.4613707 22.3862119,11.8333333 26.8727947,11.8333333 L73.8095941,11.8333333 Z M76.6666667,56 L24.1666667,56 L24.1666667,70.7368421 C24.1666667,72.2628921 25.3824451,73.5 26.8821839,73.5 L73.9511494,73.5 C75.4508882,73.5 76.6666667,72.2628921 76.6666667,70.7368421 L76.6666667,56 Z M33.7494259,61 C35.0893086,60.9997949 36.327499,61.714496 36.9974996,62.8748343 C37.6675001,64.0351725 37.6675001,65.4648275 36.9974996,66.6251657 C36.327499,67.785504 35.0893086,68.5002051 33.7494259,68.5 C31.6785823,68.4996829 30,66.8208436 30,64.75 C30,62.6791564 31.6785823,61.0003171 33.7494259,61 Z M66.2494259,61 C67.5893086,60.9997949 68.827499,61.714496 69.4974996,62.8748343 C70.1675001,64.0351725 70.1675001,65.4648275 69.4974996,66.6251657 C68.827499,67.785504 67.5893086,68.5002051 66.2494259,68.5 C64.1785823,68.4996829 62.5,66.8208436 62.5,64.75 C62.5,62.6791564 64.1785823,61.0003171 66.2494259,61 Z M47.5,31 L24.1666667,31 L24.1666667,51 L47.5,51 L47.5,31 Z M75.8333333,31 L52.5,31 L52.5,51 L75.8333333,51 L75.8333333,31 Z M73.9511494,16.8333333 L26.8821839,16.8333333 C25.3824451,16.8333333 24.1666667,18.0769868 24.1666667,19.6111111 L24.1666667,25.1666667 L76.6666667,25.1666667 L76.6666667,19.6111111 C76.6666667,18.0769868 75.4508882,16.8333333 73.9511494,16.8333333 Z" id="形状" fill="#FFFFFF" fill-rule="nonzero"></path>
                    </g>
                </g>
            </g>
        </g>
    </g>
</svg>