<?xml version="1.0" encoding="UTF-8"?>
<svg width="40px" height="40px" viewBox="0 0 40 40" version="1.1" xmlns="http://www.w3.org/2000/svg" xmlns:xlink="http://www.w3.org/1999/xlink">
    <!-- Generator: Sketch 53.2 (72643) - https://sketchapp.com -->
    <title>分组 2</title>
    <desc>Created with Sketch.</desc>
    <g id="Page-1" stroke="none" stroke-width="1" fill="none" fill-rule="evenodd">
        <g id="联系与支持" transform="translate(-1440.000000, -882.000000)" fill="#AFAFAF" fill-rule="nonzero">
            <g id="分组-4" transform="translate(360.000000, 780.000000)">
                <g id="分组-2" transform="translate(0.000000, 80.000000)">
                    <g id="search-icon" transform="translate(1080.000000, 22.000000)">
                        <g id="xiazai" transform="translate(0.000000, -0.000000)">
                            <path d="M33.8592582,32.7460945 L33.8571636,32.7460945 L6.08139636,32.7460945 L6.07930182,32.7460945 C5.48322909,32.7460945 5,33.2291491 5,33.8264436 C5,34.4227782 5.48410182,34.9057455 6.07930182,34.9057455 L6.08139636,34.9057455 L33.8571636,34.9057455 L33.8592582,34.9057455 C34.45568,34.9057455 34.9388218,34.4227782 34.9388218,33.8264436 C34.9387345,33.2291491 34.45568,32.7460945 33.8592582,32.7460945 L33.8592582,32.7460945 L33.8592582,32.7460945 L33.8592582,32.7460945 Z M19.1597382,30.4378182 C19.3612509,30.6405527 19.6386036,30.76736 19.9469382,30.76736 L19.9469382,30.76736 L19.9469382,30.76736 C20.2550982,30.76736 20.5324509,30.6416 20.7319564,30.4367709 L34.1483055,17.0203345 C34.3499927,16.8198691 34.4770618,16.5424291 34.47776,16.2364509 C34.47776,15.62528 33.9786473,15.1302691 33.3709673,15.1302691 C33.0635927,15.1293964 32.7873745,15.2551564 32.5878691,15.4557091 L21.0529455,26.98976 L21.0529455,6.10932364 C21.0518982,6.10818909 21.0518982,6.10818909 21.0518982,6.10714182 C21.0529455,5.49588364 20.5579345,5 19.94816,5 C19.3367273,5 18.8418909,5.49579636 18.8418909,6.10714182 C18.8418909,6.10714182 18.8418909,6.10818909 18.8429382,6.10932364 L18.8429382,26.9886255 L7.30906182,15.4545745 C7.10946909,15.2541091 6.83124364,15.1294836 6.52605091,15.1303564 C5.91488,15.1294836 5.42004364,15.62528 5.41786182,16.2343564 C5.41786182,16.5415564 5.54362182,16.8210909 5.74530909,17.0194618 L19.1597382,30.4378182 L19.1597382,30.4378182 L19.1597382,30.4378182 L19.1597382,30.4378182 Z" id="形状"></path>
                        </g>
                    </g>
                </g>
            </g>
        </g>
    </g>
</svg>