<?xml version="1.0" encoding="UTF-8"?>
<svg width="120px" height="120px" viewBox="0 0 120 120" version="1.1" xmlns="http://www.w3.org/2000/svg" xmlns:xlink="http://www.w3.org/1999/xlink">
    <!-- Generator: Sketch 53.2 (72643) - https://sketchapp.com -->
    <title>分组 4</title>
    <desc>Created with Sketch.</desc>
    <g id="Page-1" stroke="none" stroke-width="1" fill="none" fill-rule="evenodd">
        <g id="联系与支持-2" transform="translate(-516.000000, -948.000000)" fill="#000000" fill-rule="nonzero">
            <g id="分组-4" transform="translate(376.000000, 868.000000)">
                <g id="分组-2" transform="translate(140.000000, 80.000000)">
                    <g id="tel-s" transform="translate(21.000000, 21.000000)">
                        <path d="M12.4541606,0 C10.967974,0 9.48178751,0.670684411 8.1274401,2.00007673 C7.62405433,2.49111353 7.02478557,3.18575095 6.31764842,4.0720125 C6.04198479,4.41933121 5.75433578,4.79060294 5.4547014,5.19780419 C4.80749113,6.07208922 4.11233936,7.04218632 3.40520222,8.09611896 C2.91380183,8.82668591 2.61416745,9.28179319 2.53026982,9.41353477 L2.48232832,9.47341731 C0.109224004,12.9466044 -0.717766894,19.1264822 0.684522019,22.9709411 L0.744448896,23.1266357 L0.780405022,23.2943068 C0.816361148,23.4619779 1.04408328,24.2404509 1.47555679,25.4620546 C2.18269394,27.5339904 3.04564096,29.7017382 4.02844174,31.9173921 C7.19258082,39.0194609 11.1956962,45.6185165 15.9299194,51.5349111 C17.4520621,53.4391758 19.0581024,55.2835579 20.7120842,57.008175 C22.749598,59.1399933 24.9668924,61.1999525 27.2920552,63.1401467 C32.7573864,67.679243 38.8459571,71.5835844 45.4019574,74.7214293 C47.4514565,75.7035029 49.4530142,76.5658114 51.3586889,77.2963784 C52.6890656,77.7993917 53.4081881,78.0269453 53.5999541,78.0868279 L53.7078225,78.1227574 L53.8037055,78.1586869 C57.6030694,79.6317973 63.8594354,79.1168075 67.4670333,77.0328952 L67.5389456,76.9969657 C67.7906385,76.8652241 68.3299804,76.5658114 69.0491029,76.1586102 C70.2955819,75.4519963 71.4581633,74.7573588 72.500891,74.1226039 C72.9083937,73.8710973 73.3039111,73.6195906 73.6634724,73.392037 C75.2575273,72.3620574 76.3601818,71.5596314 76.9234945,70.984759 C79.6801308,68.2062093 79.6921162,64.9126698 76.9594506,62.1580731 C73.2799404,58.4573323 69.6363863,54.8164741 66.1126859,51.3313105 C63.4039911,48.6485728 60.1679398,48.6485728 57.4592449,51.3313105 C56.6921809,52.0978069 55.481658,53.2834812 53.9595153,54.8164741 L48.4102866,60.337644 L46.6124803,59.607077 C45.96527,59.3435939 44.8746008,58.8765101 43.3524582,58.1459431 C40.535895,56.7925978 37.9230832,55.3075109 35.5739496,53.7266119 C33.3686405,52.2535015 31.4509805,50.7205086 29.8569256,49.1635626 C28.1070608,47.4628986 26.3691813,45.2472447 24.6912288,42.5884601 C23.3009253,40.3847828 21.9705486,37.9295988 20.7480403,35.2827906 C20.0528885,33.7857272 19.6334004,32.7557476 19.4416344,32.2647108 L18.7344973,30.4802112 L23.8882087,25.330313 C25.6620442,23.5577899 26.9564647,22.2643272 27.5437481,21.6655018 C30.348326,18.8510226 30.3363406,15.6173656 27.5197774,12.7789333 C25.1346877,10.3716554 18.3509653,3.5929522 16.7688957,2.03600625 C15.438519,0.670684411 13.9403471,0 12.4541606,0 L12.4541606,0 Z" id="路径"></path>
                    </g>
                </g>
            </g>
        </g>
    </g>
</svg>